<mxfile host="app.diagrams.net" agent="Mozilla/5.0 (Windows NT 10.0; Win64; x64) AppleWebKit/537.36 (KHTML, like Gecko) Chrome/131.0.0.0 Safari/537.36" version="25.0.3">
  <diagram name="Page-1" id="we2B-EPDVbcSGUSXe_XV">
    <mxGraphModel dx="5836" dy="2780" grid="1" gridSize="10" guides="1" tooltips="1" connect="1" arrows="1" fold="1" page="1" pageScale="1" pageWidth="850" pageHeight="1100" math="0" shadow="0">
      <root>
        <mxCell id="0" />
        <mxCell id="1" parent="0" />
        <mxCell id="kMKTAfwcoq6TKuCzOSCz-64" value="user_id" style="html=1;overflow=block;blockSpacing=1;whiteSpace=wrap;ellipse;fontSize=16.7;fontColor=#3a414a;fontStyle=4;spacing=3.8;strokeColor=#3a414a;strokeOpacity=100;fillOpacity=100;rounded=1;absoluteArcSize=1;arcSize=9;fillColor=#ffffff;strokeWidth=0.8;lucidId=bpXyJnoL5-xP;" vertex="1" parent="1">
          <mxGeometry x="-779" y="90" width="135" height="45" as="geometry" />
        </mxCell>
        <mxCell id="kMKTAfwcoq6TKuCzOSCz-65" value="name" style="html=1;overflow=block;blockSpacing=1;whiteSpace=wrap;ellipse;fontSize=16.7;fontColor=#3a414a;spacing=3.8;strokeColor=#3a414a;strokeOpacity=100;fillOpacity=100;rounded=1;absoluteArcSize=1;arcSize=9;fillColor=#ffffff;strokeWidth=0.8;lucidId=cqXyB_txL.Rj;" vertex="1" parent="1">
          <mxGeometry x="-615" y="75" width="135" height="45" as="geometry" />
        </mxCell>
        <mxCell id="kMKTAfwcoq6TKuCzOSCz-66" value="last_name" style="html=1;overflow=block;blockSpacing=1;whiteSpace=wrap;ellipse;fontSize=16.7;fontColor=#3a414a;spacing=3.8;strokeColor=#3a414a;strokeOpacity=100;fillOpacity=100;rounded=1;absoluteArcSize=1;arcSize=9;fillColor=#ffffff;strokeWidth=0.8;lucidId=2qXy0XbtfYEI;" vertex="1" parent="1">
          <mxGeometry x="-525" width="135" height="45" as="geometry" />
        </mxCell>
        <mxCell id="kMKTAfwcoq6TKuCzOSCz-67" value="first_name" style="html=1;overflow=block;blockSpacing=1;whiteSpace=wrap;ellipse;fontSize=16.7;fontColor=#3a414a;spacing=3.8;strokeColor=#3a414a;strokeOpacity=100;fillOpacity=100;rounded=1;absoluteArcSize=1;arcSize=9;fillColor=#ffffff;strokeWidth=0.8;lucidId=3qXyEBtes6N~;" vertex="1" parent="1">
          <mxGeometry x="-675" y="-15" width="135" height="45" as="geometry" />
        </mxCell>
        <mxCell id="kMKTAfwcoq6TKuCzOSCz-68" value="" style="html=1;jettySize=18;whiteSpace=wrap;fontSize=13;strokeColor=#3a414a;strokeOpacity=100;strokeWidth=0.8;rounded=1;arcSize=12;edgeStyle=orthogonalEdgeStyle;startArrow=none;endArrow=block;endFill=1;exitX=0.5;exitY=-0.008;exitPerimeter=0;entryX=0.016;entryY=0.639;entryPerimeter=0;lucidId=yrXyQjngN3Ix;" edge="1" parent="1" source="kMKTAfwcoq6TKuCzOSCz-65" target="kMKTAfwcoq6TKuCzOSCz-66">
          <mxGeometry width="100" height="100" relative="1" as="geometry">
            <Array as="points" />
          </mxGeometry>
        </mxCell>
        <mxCell id="kMKTAfwcoq6TKuCzOSCz-69" value="" style="html=1;jettySize=18;whiteSpace=wrap;fontSize=13;strokeColor=#3a414a;strokeOpacity=100;strokeWidth=0.8;rounded=1;arcSize=12;edgeStyle=orthogonalEdgeStyle;startArrow=none;endArrow=block;endFill=1;exitX=0.391;exitY=0.004;exitPerimeter=0;entryX=0.836;entryY=0.879;entryPerimeter=0;lucidId=LrXyaM-QyR5.;" edge="1" parent="1" source="kMKTAfwcoq6TKuCzOSCz-65" target="kMKTAfwcoq6TKuCzOSCz-67">
          <mxGeometry width="100" height="100" relative="1" as="geometry">
            <Array as="points" />
          </mxGeometry>
        </mxCell>
        <mxCell id="kMKTAfwcoq6TKuCzOSCz-70" value="" style="html=1;jettySize=18;whiteSpace=wrap;fontSize=13;strokeColor=#3a414a;strokeOpacity=100;strokeWidth=0.8;rounded=1;arcSize=12;edgeStyle=orthogonalEdgeStyle;startArrow=none;endArrow=block;endFill=1;exitX=0.064;exitY=-0.059;exitPerimeter=0;entryX=0.73;entryY=0.952;entryPerimeter=0;lucidId=3rXy60mKjBkW;exitDx=0;exitDy=0;" edge="1" parent="1" source="kMKTAfwcoq6TKuCzOSCz-123" target="kMKTAfwcoq6TKuCzOSCz-64">
          <mxGeometry width="100" height="100" relative="1" as="geometry">
            <Array as="points" />
            <mxPoint x="-647.165" y="209.91000000000008" as="sourcePoint" />
          </mxGeometry>
        </mxCell>
        <mxCell id="kMKTAfwcoq6TKuCzOSCz-71" value="" style="html=1;jettySize=18;whiteSpace=wrap;fontSize=13;strokeColor=#3a414a;strokeOpacity=100;strokeWidth=0.8;rounded=1;arcSize=12;edgeStyle=orthogonalEdgeStyle;startArrow=none;endArrow=block;endFill=1;exitX=0.5;exitY=-0.008;exitPerimeter=0;entryX=0.5;entryY=1.008;entryPerimeter=0;lucidId=gsXyzeODPfmF;" edge="1" parent="1" target="kMKTAfwcoq6TKuCzOSCz-65">
          <mxGeometry width="100" height="100" relative="1" as="geometry">
            <Array as="points" />
            <mxPoint x="-582.5" y="209.6400000000001" as="sourcePoint" />
          </mxGeometry>
        </mxCell>
        <mxCell id="kMKTAfwcoq6TKuCzOSCz-72" value="email" style="html=1;overflow=block;blockSpacing=1;whiteSpace=wrap;ellipse;fontSize=16.7;fontColor=#3a414a;spacing=3.8;strokeColor=#3a414a;strokeOpacity=100;fillOpacity=100;rounded=1;absoluteArcSize=1;arcSize=9;fillColor=#ffffff;strokeWidth=0.8;lucidId=PsXyd4pGkRO4;" vertex="1" parent="1">
          <mxGeometry x="-915" y="120" width="135" height="45" as="geometry" />
        </mxCell>
        <mxCell id="kMKTAfwcoq6TKuCzOSCz-73" value="" style="html=1;jettySize=18;whiteSpace=wrap;fontSize=13;strokeColor=#3a414a;strokeOpacity=100;strokeWidth=0.8;rounded=1;arcSize=12;edgeStyle=orthogonalEdgeStyle;startArrow=none;endArrow=block;endFill=1;exitX=0.002;exitY=0.046;exitPerimeter=0;entryX=1.003;entryY=0.5;entryPerimeter=0;lucidId=jtXy0MZ8ZNQw;" edge="1" parent="1" target="kMKTAfwcoq6TKuCzOSCz-72">
          <mxGeometry width="100" height="100" relative="1" as="geometry">
            <Array as="points" />
            <mxPoint x="-649.73" y="212.06999999999994" as="sourcePoint" />
          </mxGeometry>
        </mxCell>
        <mxCell id="kMKTAfwcoq6TKuCzOSCz-74" value="password" style="html=1;overflow=block;blockSpacing=1;whiteSpace=wrap;ellipse;fontSize=16.7;fontColor=#3a414a;spacing=3.8;strokeColor=#3a414a;strokeOpacity=100;fillOpacity=100;rounded=1;absoluteArcSize=1;arcSize=9;fillColor=#ffffff;strokeWidth=0.8;lucidId=RtXyytwRsC4.;" vertex="1" parent="1">
          <mxGeometry x="-945" y="210" width="135" height="45" as="geometry" />
        </mxCell>
        <mxCell id="kMKTAfwcoq6TKuCzOSCz-75" value="" style="html=1;jettySize=18;whiteSpace=wrap;fontSize=13;strokeColor=#3a414a;strokeOpacity=100;strokeWidth=0.8;rounded=1;arcSize=12;edgeStyle=orthogonalEdgeStyle;startArrow=none;endArrow=block;endFill=1;exitX=0;exitY=0.5;entryX=0.996;entryY=0.583;entryPerimeter=0;lucidId=-tXykESYPSTD;exitDx=0;exitDy=0;" edge="1" parent="1" source="kMKTAfwcoq6TKuCzOSCz-123" target="kMKTAfwcoq6TKuCzOSCz-74">
          <mxGeometry width="100" height="100" relative="1" as="geometry">
            <Array as="points" />
            <mxPoint x="-650.405" y="230.6099999999999" as="sourcePoint" />
          </mxGeometry>
        </mxCell>
        <mxCell id="kMKTAfwcoq6TKuCzOSCz-76" value="role" style="html=1;overflow=block;blockSpacing=1;whiteSpace=wrap;ellipse;fontSize=16.7;fontColor=#3a414a;spacing=3.8;strokeColor=#3a414a;strokeOpacity=100;fillOpacity=100;rounded=1;absoluteArcSize=1;arcSize=9;fillColor=#ffffff;strokeWidth=0.8;lucidId=7uXyhCBNtfZT;" vertex="1" parent="1">
          <mxGeometry x="-960" y="270" width="135" height="45" as="geometry" />
        </mxCell>
        <mxCell id="kMKTAfwcoq6TKuCzOSCz-77" value="university_id" style="html=1;overflow=block;blockSpacing=1;whiteSpace=wrap;ellipse;fontSize=16.7;fontColor=#3a414a;spacing=3.8;strokeColor=#3a414a;strokeOpacity=100;fillOpacity=100;rounded=1;absoluteArcSize=1;arcSize=9;fillColor=#ffffff;strokeWidth=0.8;lucidId=evXyG4XahQaW;" vertex="1" parent="1">
          <mxGeometry x="-240" y="345" width="135" height="45" as="geometry" />
        </mxCell>
        <mxCell id="kMKTAfwcoq6TKuCzOSCz-78" value="department_id" style="html=1;overflow=block;blockSpacing=1;whiteSpace=wrap;ellipse;fontSize=16.7;fontColor=#3a414a;spacing=3.8;strokeColor=#3a414a;strokeOpacity=100;fillOpacity=100;rounded=1;absoluteArcSize=1;arcSize=9;fillColor=#ffffff;strokeWidth=0.8;lucidId=qvXy.vbX.yIx;" vertex="1" parent="1">
          <mxGeometry x="-240" y="285" width="135" height="45" as="geometry" />
        </mxCell>
        <mxCell id="kMKTAfwcoq6TKuCzOSCz-79" value="program" style="html=1;overflow=block;blockSpacing=1;whiteSpace=wrap;ellipse;fontSize=16.7;fontColor=#3a414a;spacing=3.8;strokeColor=#3a414a;strokeOpacity=100;fillOpacity=100;rounded=1;absoluteArcSize=1;arcSize=9;fillColor=#ffffff;strokeWidth=0.8;lucidId=xvXy4jD9YYKA;" vertex="1" parent="1">
          <mxGeometry x="-1050" y="345" width="135" height="45" as="geometry" />
        </mxCell>
        <mxCell id="kMKTAfwcoq6TKuCzOSCz-80" value="semester" style="html=1;overflow=block;blockSpacing=1;whiteSpace=wrap;ellipse;fontSize=16.7;fontColor=#3a414a;spacing=3.8;strokeColor=#3a414a;strokeOpacity=100;fillOpacity=100;rounded=1;absoluteArcSize=1;arcSize=9;fillColor=#ffffff;strokeWidth=0.8;lucidId=JvXypG2MiDyF;" vertex="1" parent="1">
          <mxGeometry x="-405" y="81" width="135" height="45" as="geometry" />
        </mxCell>
        <mxCell id="kMKTAfwcoq6TKuCzOSCz-81" value="profile_complete" style="html=1;overflow=block;blockSpacing=1;whiteSpace=wrap;ellipse;fontSize=16.7;fontColor=#3a414a;spacing=3.8;strokeColor=#3a414a;strokeOpacity=100;fillOpacity=100;rounded=1;absoluteArcSize=1;arcSize=9;fillColor=#ffffff;strokeWidth=0.8;lucidId=YvXynKNkwiAd;" vertex="1" parent="1">
          <mxGeometry x="-315" y="195" width="135" height="45" as="geometry" />
        </mxCell>
        <mxCell id="kMKTAfwcoq6TKuCzOSCz-82" value="date_joined" style="html=1;overflow=block;blockSpacing=1;whiteSpace=wrap;ellipse;fontSize=16.7;fontColor=#3a414a;spacing=3.8;strokeColor=#3a414a;strokeOpacity=100;fillOpacity=100;rounded=1;absoluteArcSize=1;arcSize=9;fillColor=#ffffff;strokeWidth=0.8;lucidId=iwXykSMktUwT;" vertex="1" parent="1">
          <mxGeometry x="-339" y="126" width="135" height="45" as="geometry" />
        </mxCell>
        <mxCell id="kMKTAfwcoq6TKuCzOSCz-83" value="age" style="html=1;overflow=block;blockSpacing=1;whiteSpace=wrap;ellipse;fontSize=16.7;fontColor=#3a414a;spacing=3.8;strokeColor=#3a414a;strokeOpacity=100;fillOpacity=100;rounded=1;absoluteArcSize=1;arcSize=9;fillColor=#ffffff;strokeWidth=0.8;lucidId=qwXyHfm.u9rl;" vertex="1" parent="1">
          <mxGeometry x="-255" y="240" width="135" height="45" as="geometry" />
        </mxCell>
        <mxCell id="kMKTAfwcoq6TKuCzOSCz-84" value="address" style="html=1;overflow=block;blockSpacing=1;whiteSpace=wrap;ellipse;fontSize=16.7;fontColor=#3a414a;spacing=3.8;strokeColor=#3a414a;strokeOpacity=100;fillOpacity=100;rounded=1;absoluteArcSize=1;arcSize=9;fillColor=#ffffff;strokeWidth=0.8;lucidId=vwXysebvJJaR;" vertex="1" parent="1">
          <mxGeometry x="-990" y="405" width="135" height="45" as="geometry" />
        </mxCell>
        <mxCell id="kMKTAfwcoq6TKuCzOSCz-85" value="" style="html=1;jettySize=18;whiteSpace=wrap;fontSize=13;strokeColor=#3a414a;strokeOpacity=100;strokeWidth=0.8;rounded=1;arcSize=12;edgeStyle=orthogonalEdgeStyle;startArrow=none;endArrow=block;endFill=1;entryX=-0.003;entryY=0.5;entryPerimeter=0;lucidId=BxXyCo1~NgiE;" edge="1" parent="1" target="kMKTAfwcoq6TKuCzOSCz-77">
          <mxGeometry width="100" height="100" relative="1" as="geometry">
            <Array as="points">
              <mxPoint x="-529" y="368" />
            </Array>
            <mxPoint x="-529" y="255" as="sourcePoint" />
          </mxGeometry>
        </mxCell>
        <mxCell id="kMKTAfwcoq6TKuCzOSCz-86" value="" style="html=1;jettySize=18;whiteSpace=wrap;fontSize=13;strokeColor=#3a414a;strokeOpacity=100;strokeWidth=0.8;rounded=1;arcSize=12;edgeStyle=orthogonalEdgeStyle;startArrow=none;endArrow=block;endFill=1;entryX=-0.003;entryY=0.5;entryPerimeter=0;lucidId=KyXyc4f~X5Tk;" edge="1" parent="1" target="kMKTAfwcoq6TKuCzOSCz-81">
          <mxGeometry width="100" height="100" relative="1" as="geometry">
            <Array as="points" />
            <mxPoint x="-520" y="220" as="sourcePoint" />
          </mxGeometry>
        </mxCell>
        <mxCell id="kMKTAfwcoq6TKuCzOSCz-87" value="" style="html=1;jettySize=18;whiteSpace=wrap;fontSize=13;strokeColor=#3a414a;strokeOpacity=100;strokeWidth=0.8;rounded=1;arcSize=12;edgeStyle=orthogonalEdgeStyle;startArrow=none;endArrow=block;endFill=1;lucidId=ZyXy9w5JCMK9;exitX=0.697;exitY=-0.044;exitDx=0;exitDy=0;exitPerimeter=0;" edge="1" parent="1" source="kMKTAfwcoq6TKuCzOSCz-123" target="kMKTAfwcoq6TKuCzOSCz-80">
          <mxGeometry width="100" height="100" relative="1" as="geometry">
            <Array as="points">
              <mxPoint x="-561" y="190" />
              <mxPoint x="-397" y="190" />
            </Array>
            <mxPoint x="-560" y="189.64" as="sourcePoint" />
            <mxPoint x="-397.5" y="134.9999999999999" as="targetPoint" />
          </mxGeometry>
        </mxCell>
        <mxCell id="kMKTAfwcoq6TKuCzOSCz-88" value="" style="html=1;jettySize=18;whiteSpace=wrap;fontSize=13;strokeColor=#3a414a;strokeOpacity=100;strokeWidth=0.8;rounded=1;arcSize=12;edgeStyle=orthogonalEdgeStyle;startArrow=none;endArrow=block;endFill=1;exitX=0.821;exitY=-0.008;exitPerimeter=0;entryX=0.228;entryY=0.928;entryPerimeter=0;lucidId=8yXyPmHvnm9G;" edge="1" parent="1" target="kMKTAfwcoq6TKuCzOSCz-82">
          <mxGeometry width="100" height="100" relative="1" as="geometry">
            <Array as="points" />
            <mxPoint x="-539.165" y="209.6400000000001" as="sourcePoint" />
          </mxGeometry>
        </mxCell>
        <mxCell id="kMKTAfwcoq6TKuCzOSCz-89" value="" style="html=1;jettySize=18;whiteSpace=wrap;fontSize=13;strokeColor=#3a414a;strokeOpacity=100;strokeWidth=0.8;rounded=1;arcSize=12;edgeStyle=orthogonalEdgeStyle;startArrow=none;endArrow=block;endFill=1;exitX=1;exitY=0.75;entryX=-0.003;entryY=0.5;entryPerimeter=0;lucidId=bzXy_dMHg1p6;exitDx=0;exitDy=0;" edge="1" parent="1" source="kMKTAfwcoq6TKuCzOSCz-123" target="kMKTAfwcoq6TKuCzOSCz-83">
          <mxGeometry width="100" height="100" relative="1" as="geometry">
            <Array as="points" />
            <mxPoint x="-514.595" y="232.5" as="sourcePoint" />
          </mxGeometry>
        </mxCell>
        <mxCell id="kMKTAfwcoq6TKuCzOSCz-90" value="" style="html=1;jettySize=18;whiteSpace=wrap;fontSize=13;strokeColor=#3a414a;strokeOpacity=100;strokeWidth=0.8;rounded=1;arcSize=12;edgeStyle=orthogonalEdgeStyle;startArrow=none;endArrow=block;endFill=1;exitX=1;exitY=1;entryX=-0.003;entryY=0.484;entryPerimeter=0;lucidId=xzXyw1KtKOSN;exitDx=0;exitDy=0;" edge="1" parent="1" source="kMKTAfwcoq6TKuCzOSCz-123" target="kMKTAfwcoq6TKuCzOSCz-78">
          <mxGeometry width="100" height="100" relative="1" as="geometry">
            <Array as="points" />
            <mxPoint x="-514.595" y="244.01999999999998" as="sourcePoint" />
          </mxGeometry>
        </mxCell>
        <mxCell id="kMKTAfwcoq6TKuCzOSCz-91" value="" style="html=1;jettySize=18;whiteSpace=wrap;fontSize=13;strokeColor=#3a414a;strokeOpacity=100;strokeWidth=0.8;rounded=1;arcSize=12;edgeStyle=orthogonalEdgeStyle;startArrow=none;endArrow=block;endFill=1;exitX=0;exitY=0.75;entryX=1.003;entryY=0.5;entryPerimeter=0;lucidId=HzXy7.Hxay4N;exitDx=0;exitDy=0;" edge="1" parent="1" source="kMKTAfwcoq6TKuCzOSCz-123" target="kMKTAfwcoq6TKuCzOSCz-76">
          <mxGeometry width="100" height="100" relative="1" as="geometry">
            <Array as="points" />
            <mxPoint x="-650.405" y="246" as="sourcePoint" />
          </mxGeometry>
        </mxCell>
        <mxCell id="kMKTAfwcoq6TKuCzOSCz-92" value="" style="html=1;jettySize=18;whiteSpace=wrap;fontSize=13;strokeColor=#3a414a;strokeOpacity=100;strokeWidth=0.8;rounded=1;arcSize=12;edgeStyle=orthogonalEdgeStyle;startArrow=none;endArrow=block;endFill=1;exitX=0.077;exitY=1.008;exitPerimeter=0;entryX=0.903;entryY=0.195;entryPerimeter=0;lucidId=PzXyyfH_9DdG;" edge="1" parent="1" target="kMKTAfwcoq6TKuCzOSCz-79">
          <mxGeometry width="100" height="100" relative="1" as="geometry">
            <Array as="points" />
            <mxPoint x="-639.605" y="255.3599999999999" as="sourcePoint" />
          </mxGeometry>
        </mxCell>
        <mxCell id="kMKTAfwcoq6TKuCzOSCz-93" value="" style="html=1;jettySize=18;whiteSpace=wrap;fontSize=13;strokeColor=#3a414a;strokeOpacity=100;strokeWidth=0.8;rounded=1;arcSize=12;edgeStyle=orthogonalEdgeStyle;startArrow=none;endArrow=block;endFill=1;entryX=0.677;entryY=0.025;entryPerimeter=0;lucidId=pAXyfz81DMzu;exitX=0.25;exitY=1;exitDx=0;exitDy=0;" edge="1" parent="1" source="kMKTAfwcoq6TKuCzOSCz-123" target="kMKTAfwcoq6TKuCzOSCz-84">
          <mxGeometry width="100" height="100" relative="1" as="geometry">
            <Array as="points">
              <mxPoint x="-615" y="342" />
              <mxPoint x="-899" y="342" />
            </Array>
            <mxPoint x="-600" y="341" as="sourcePoint" />
          </mxGeometry>
        </mxCell>
        <mxCell id="kMKTAfwcoq6TKuCzOSCz-95" value="department_id" style="html=1;overflow=block;blockSpacing=1;whiteSpace=wrap;ellipse;fontSize=16.7;fontColor=#3a414a;fontStyle=4;spacing=3.8;strokeColor=#3a414a;strokeOpacity=100;fillOpacity=100;rounded=1;absoluteArcSize=1;arcSize=9;fillColor=#ffffff;strokeWidth=0.8;lucidId=6BXycajUsQHc;" vertex="1" parent="1">
          <mxGeometry x="-1515" y="705" width="135" height="45" as="geometry" />
        </mxCell>
        <mxCell id="kMKTAfwcoq6TKuCzOSCz-96" value="department_name" style="html=1;overflow=block;blockSpacing=1;whiteSpace=wrap;ellipse;fontSize=16.7;fontColor=#3a414a;spacing=3.8;strokeColor=#3a414a;strokeOpacity=100;fillOpacity=100;rounded=1;absoluteArcSize=1;arcSize=9;fillColor=#ffffff;strokeWidth=0.8;lucidId=6BXy204AagYB;" vertex="1" parent="1">
          <mxGeometry x="-1530" y="630" width="135" height="45" as="geometry" />
        </mxCell>
        <mxCell id="kMKTAfwcoq6TKuCzOSCz-97" value="" style="html=1;jettySize=18;whiteSpace=wrap;fontSize=13;strokeColor=#3a414a;strokeOpacity=100;strokeWidth=0.8;rounded=1;arcSize=12;edgeStyle=orthogonalEdgeStyle;startArrow=none;endArrow=block;endFill=1;exitX=0.022;exitY=0.644;exitPerimeter=0;entryX=0.956;entryY=0.285;entryPerimeter=0;lucidId=6BXyuy7_bkwp;exitDx=0;exitDy=0;" edge="1" parent="1" source="kMKTAfwcoq6TKuCzOSCz-128" target="kMKTAfwcoq6TKuCzOSCz-95">
          <mxGeometry width="100" height="100" relative="1" as="geometry">
            <Array as="points" />
            <mxPoint x="-1155.405" y="717.8249999999998" as="sourcePoint" />
          </mxGeometry>
        </mxCell>
        <mxCell id="kMKTAfwcoq6TKuCzOSCz-98" value="" style="html=1;jettySize=18;whiteSpace=wrap;fontSize=13;strokeColor=#3a414a;strokeOpacity=100;strokeWidth=0.8;rounded=1;arcSize=12;edgeStyle=orthogonalEdgeStyle;startArrow=none;endArrow=block;endFill=1;exitX=0.093;exitY=-0.008;exitPerimeter=0;entryX=1.003;entryY=0.5;entryPerimeter=0;lucidId=6BXy7P57U716;" edge="1" parent="1" target="kMKTAfwcoq6TKuCzOSCz-96">
          <mxGeometry width="100" height="100" relative="1" as="geometry">
            <Array as="points" />
            <mxPoint x="-1142.445" y="704.6399999999999" as="sourcePoint" />
          </mxGeometry>
        </mxCell>
        <mxCell id="kMKTAfwcoq6TKuCzOSCz-100" value="university_id" style="html=1;overflow=block;blockSpacing=1;whiteSpace=wrap;ellipse;fontSize=16.7;fontColor=#3a414a;fontStyle=4;spacing=3.8;strokeColor=#3a414a;strokeOpacity=100;fillOpacity=100;rounded=1;absoluteArcSize=1;arcSize=9;fillColor=#ffffff;strokeWidth=0.8;lucidId=xFXyBgDhgXLk;" vertex="1" parent="1">
          <mxGeometry x="-1620" y="480" width="135" height="45" as="geometry" />
        </mxCell>
        <mxCell id="kMKTAfwcoq6TKuCzOSCz-101" value="university_name" style="html=1;overflow=block;blockSpacing=1;whiteSpace=wrap;ellipse;fontSize=16.7;fontColor=#3a414a;spacing=3.8;strokeColor=#3a414a;strokeOpacity=100;fillOpacity=100;rounded=1;absoluteArcSize=1;arcSize=9;fillColor=#ffffff;strokeWidth=0.8;lucidId=xFXyghqiMMu8;" vertex="1" parent="1">
          <mxGeometry x="-1620" y="420" width="135" height="45" as="geometry" />
        </mxCell>
        <mxCell id="kMKTAfwcoq6TKuCzOSCz-102" value="" style="html=1;jettySize=18;whiteSpace=wrap;fontSize=13;strokeColor=#3a414a;strokeOpacity=100;strokeWidth=0.8;rounded=1;arcSize=12;edgeStyle=orthogonalEdgeStyle;startArrow=none;endArrow=block;endFill=1;exitX=0;exitY=0.25;entryX=0.956;entryY=0.285;entryPerimeter=0;lucidId=xFXyEifG~jEz;exitDx=0;exitDy=0;" edge="1" parent="1" source="kMKTAfwcoq6TKuCzOSCz-126" target="kMKTAfwcoq6TKuCzOSCz-100">
          <mxGeometry width="100" height="100" relative="1" as="geometry">
            <Array as="points" />
            <mxPoint x="-1260.405" y="492.82500000000005" as="sourcePoint" />
          </mxGeometry>
        </mxCell>
        <mxCell id="kMKTAfwcoq6TKuCzOSCz-103" value="" style="html=1;jettySize=18;whiteSpace=wrap;fontSize=13;strokeColor=#3a414a;strokeOpacity=100;strokeWidth=0.8;rounded=1;arcSize=12;edgeStyle=orthogonalEdgeStyle;startArrow=none;endArrow=block;endFill=1;exitX=0.093;exitY=-0.008;exitPerimeter=0;entryX=1.003;entryY=0.5;entryPerimeter=0;lucidId=xFXyctXH-GNL;" edge="1" parent="1" target="kMKTAfwcoq6TKuCzOSCz-101">
          <mxGeometry width="100" height="100" relative="1" as="geometry">
            <Array as="points" />
            <mxPoint x="-1247.445" y="479.6400000000001" as="sourcePoint" />
          </mxGeometry>
        </mxCell>
        <mxCell id="kMKTAfwcoq6TKuCzOSCz-104" value="campus_location" style="html=1;overflow=block;blockSpacing=1;whiteSpace=wrap;ellipse;fontSize=16.7;fontColor=#3a414a;spacing=3.8;strokeColor=#3a414a;strokeOpacity=100;fillOpacity=100;rounded=1;absoluteArcSize=1;arcSize=9;fillColor=#ffffff;strokeWidth=0.8;lucidId=QGXyPLDuW8xo;" vertex="1" parent="1">
          <mxGeometry x="-1530" y="540" width="135" height="45" as="geometry" />
        </mxCell>
        <mxCell id="kMKTAfwcoq6TKuCzOSCz-105" value="" style="html=1;jettySize=18;whiteSpace=wrap;fontSize=13;strokeColor=#3a414a;strokeOpacity=100;strokeWidth=0.8;rounded=1;arcSize=12;edgeStyle=orthogonalEdgeStyle;startArrow=none;endArrow=block;endFill=1;entryX=0.978;entryY=0.342;entryPerimeter=0;lucidId=9GXyLLC93pBq;" edge="1" parent="1" source="kMKTAfwcoq6TKuCzOSCz-126" target="kMKTAfwcoq6TKuCzOSCz-104">
          <mxGeometry width="100" height="100" relative="1" as="geometry">
            <Array as="points" />
            <mxPoint x="-1257.03" y="525.135" as="sourcePoint" />
          </mxGeometry>
        </mxCell>
        <mxCell id="kMKTAfwcoq6TKuCzOSCz-107" value="document_id" style="html=1;overflow=block;blockSpacing=1;whiteSpace=wrap;ellipse;fontSize=16.7;fontColor=#3a414a;fontStyle=4;spacing=3.8;strokeColor=#3a414a;strokeOpacity=100;fillOpacity=100;rounded=1;absoluteArcSize=1;arcSize=9;fillColor=#ffffff;strokeWidth=0.8;lucidId=CTXyAcADFPme;" vertex="1" parent="1">
          <mxGeometry x="-660" y="840" width="135" height="45" as="geometry" />
        </mxCell>
        <mxCell id="kMKTAfwcoq6TKuCzOSCz-108" value="title" style="html=1;overflow=block;blockSpacing=1;whiteSpace=wrap;ellipse;fontSize=16.7;fontColor=#3a414a;spacing=3.8;strokeColor=#3a414a;strokeOpacity=100;fillOpacity=100;rounded=1;absoluteArcSize=1;arcSize=9;fillColor=#ffffff;strokeWidth=0.8;lucidId=CTXyQfJYNm_L;" vertex="1" parent="1">
          <mxGeometry x="-135" y="870" width="135" height="45" as="geometry" />
        </mxCell>
        <mxCell id="kMKTAfwcoq6TKuCzOSCz-110" value="course_id" style="html=1;overflow=block;blockSpacing=1;whiteSpace=wrap;ellipse;fontSize=16.7;fontColor=#3a414a;spacing=3.8;strokeColor=#3a414a;strokeOpacity=100;fillOpacity=100;rounded=1;absoluteArcSize=1;arcSize=9;fillColor=#ffffff;strokeWidth=0.8;lucidId=CTXygEsMavHD;" vertex="1" parent="1">
          <mxGeometry x="-645" y="900" width="135" height="45" as="geometry" />
        </mxCell>
        <mxCell id="kMKTAfwcoq6TKuCzOSCz-111" value="file_path(file)" style="html=1;overflow=block;blockSpacing=1;whiteSpace=wrap;ellipse;fontSize=16.7;fontColor=#3a414a;spacing=3.8;strokeColor=#3a414a;strokeOpacity=100;fillOpacity=100;rounded=1;absoluteArcSize=1;arcSize=9;fillColor=#ffffff;strokeWidth=0.8;lucidId=CTXyUF-t7PcM;" vertex="1" parent="1">
          <mxGeometry x="-675" y="960" width="135" height="45" as="geometry" />
        </mxCell>
        <mxCell id="kMKTAfwcoq6TKuCzOSCz-112" value="upload_date" style="html=1;overflow=block;blockSpacing=1;whiteSpace=wrap;ellipse;fontSize=16.7;fontColor=#3a414a;spacing=3.8;strokeColor=#3a414a;strokeOpacity=100;fillOpacity=100;rounded=1;absoluteArcSize=1;arcSize=9;fillColor=#ffffff;strokeWidth=0.8;lucidId=CTXyg3M-bdhD;" vertex="1" parent="1">
          <mxGeometry x="-690" y="1110" width="135" height="45" as="geometry" />
        </mxCell>
        <mxCell id="kMKTAfwcoq6TKuCzOSCz-113" value="is_free&#x9;" style="html=1;overflow=block;blockSpacing=1;whiteSpace=wrap;ellipse;fontSize=16.7;fontColor=#3a414a;spacing=3.8;strokeColor=#3a414a;strokeOpacity=100;fillOpacity=100;rounded=1;absoluteArcSize=1;arcSize=9;fillColor=#ffffff;strokeWidth=0.8;lucidId=CTXynaInC8LI;" vertex="1" parent="1">
          <mxGeometry x="-105" y="1110" width="135" height="45" as="geometry" />
        </mxCell>
        <mxCell id="kMKTAfwcoq6TKuCzOSCz-114" value="description" style="html=1;overflow=block;blockSpacing=1;whiteSpace=wrap;ellipse;fontSize=16.7;fontColor=#3a414a;spacing=3.8;strokeColor=#3a414a;strokeOpacity=100;fillOpacity=100;rounded=1;absoluteArcSize=1;arcSize=9;fillColor=#ffffff;strokeWidth=0.8;lucidId=CTXye~SEYbfj;" vertex="1" parent="1">
          <mxGeometry x="-120" y="945" width="135" height="45" as="geometry" />
        </mxCell>
        <mxCell id="kMKTAfwcoq6TKuCzOSCz-115" value="uploaded_by" style="html=1;overflow=block;blockSpacing=1;whiteSpace=wrap;ellipse;fontSize=16.7;fontColor=#3a414a;spacing=3.8;strokeColor=#3a414a;strokeOpacity=100;fillOpacity=100;rounded=1;absoluteArcSize=1;arcSize=9;fillColor=#ffffff;strokeWidth=0.8;lucidId=CTXyEhZ~NJwq;" vertex="1" parent="1">
          <mxGeometry x="-675" y="1035" width="135" height="45" as="geometry" />
        </mxCell>
        <mxCell id="kMKTAfwcoq6TKuCzOSCz-116" value="price" style="html=1;overflow=block;blockSpacing=1;whiteSpace=wrap;ellipse;fontSize=16.7;fontColor=#3a414a;spacing=3.8;strokeColor=#3a414a;strokeOpacity=100;fillOpacity=100;rounded=1;absoluteArcSize=1;arcSize=9;fillColor=#ffffff;strokeWidth=0.8;lucidId=CTXyr2xQA.jP;" vertex="1" parent="1">
          <mxGeometry x="-105" y="1020" width="135" height="45" as="geometry" />
        </mxCell>
        <mxCell id="kMKTAfwcoq6TKuCzOSCz-117" value="" style="html=1;jettySize=18;whiteSpace=wrap;fontSize=13;strokeColor=#3a414a;strokeOpacity=100;strokeWidth=0.8;rounded=1;arcSize=12;edgeStyle=orthogonalEdgeStyle;startArrow=none;endArrow=block;endFill=1;exitX=1;exitY=0;entryX=0.5;entryY=1.008;entryPerimeter=0;lucidId=gVXynWgnCXeu;exitDx=0;exitDy=0;" edge="1" parent="1" source="kMKTAfwcoq6TKuCzOSCz-129" target="kMKTAfwcoq6TKuCzOSCz-108">
          <mxGeometry width="100" height="100" relative="1" as="geometry">
            <Array as="points" />
            <mxPoint x="-277.5450000000001" y="959.6399999999999" as="sourcePoint" />
          </mxGeometry>
        </mxCell>
        <mxCell id="kMKTAfwcoq6TKuCzOSCz-118" value="" style="html=1;jettySize=18;whiteSpace=wrap;fontSize=13;strokeColor=#3a414a;strokeOpacity=100;strokeWidth=0.8;rounded=1;arcSize=12;edgeStyle=orthogonalEdgeStyle;startArrow=none;endArrow=block;endFill=1;exitX=1;exitY=0.5;entryX=0.12;entryY=0.833;entryPerimeter=0;lucidId=Q0Xy5_ONoMZy;exitDx=0;exitDy=0;" edge="1" parent="1" source="kMKTAfwcoq6TKuCzOSCz-129" target="kMKTAfwcoq6TKuCzOSCz-114">
          <mxGeometry width="100" height="100" relative="1" as="geometry">
            <Array as="points" />
            <mxPoint x="-254.59500000000025" y="982.5" as="sourcePoint" />
          </mxGeometry>
        </mxCell>
        <mxCell id="kMKTAfwcoq6TKuCzOSCz-119" value="" style="html=1;jettySize=18;whiteSpace=wrap;fontSize=13;strokeColor=#3a414a;strokeOpacity=100;strokeWidth=0.8;rounded=1;arcSize=12;edgeStyle=orthogonalEdgeStyle;startArrow=none;endArrow=block;endFill=1;exitX=0.994;exitY=0.881;exitPerimeter=0;entryX=-0.003;entryY=0.5;entryPerimeter=0;lucidId=X0Xyz8u4sEjg;exitDx=0;exitDy=0;" edge="1" parent="1" source="kMKTAfwcoq6TKuCzOSCz-129" target="kMKTAfwcoq6TKuCzOSCz-116">
          <mxGeometry width="100" height="100" relative="1" as="geometry">
            <Array as="points" />
            <mxPoint x="-256.6199999999999" y="1004.46" as="sourcePoint" />
          </mxGeometry>
        </mxCell>
        <mxCell id="kMKTAfwcoq6TKuCzOSCz-120" value="" style="html=1;jettySize=18;whiteSpace=wrap;fontSize=13;strokeColor=#3a414a;strokeOpacity=100;strokeWidth=0.8;rounded=1;arcSize=12;edgeStyle=orthogonalEdgeStyle;startArrow=none;endArrow=block;endFill=1;exitX=1;exitY=1;entryX=-0.003;entryY=0.5;entryPerimeter=0;lucidId=70XyFSlE3IHd;exitDx=0;exitDy=0;" edge="1" parent="1" source="kMKTAfwcoq6TKuCzOSCz-129" target="kMKTAfwcoq6TKuCzOSCz-113">
          <mxGeometry width="100" height="100" relative="1" as="geometry">
            <Array as="points" />
            <mxPoint x="-277.40999999999985" y="1005.3600000000001" as="sourcePoint" />
          </mxGeometry>
        </mxCell>
        <mxCell id="kMKTAfwcoq6TKuCzOSCz-121" value="" style="html=1;jettySize=18;whiteSpace=wrap;fontSize=13;strokeColor=#3a414a;strokeOpacity=100;strokeWidth=0.8;rounded=1;arcSize=12;edgeStyle=orthogonalEdgeStyle;startArrow=none;endArrow=block;endFill=1;exitX=0;exitY=0.25;entryX=1.003;entryY=0.5;entryPerimeter=0;lucidId=i1XyxVv~0u5z;exitDx=0;exitDy=0;" edge="1" parent="1" source="kMKTAfwcoq6TKuCzOSCz-129" target="kMKTAfwcoq6TKuCzOSCz-110">
          <mxGeometry width="100" height="100" relative="1" as="geometry">
            <Array as="points" />
            <mxPoint x="-390.4050000000002" y="965.94" as="sourcePoint" />
          </mxGeometry>
        </mxCell>
        <mxCell id="kMKTAfwcoq6TKuCzOSCz-122" value="" style="html=1;jettySize=18;whiteSpace=wrap;fontSize=13;strokeColor=#3a414a;strokeOpacity=100;strokeWidth=0.8;rounded=1;arcSize=12;edgeStyle=orthogonalEdgeStyle;startArrow=none;endArrow=block;endFill=1;entryX=1.003;entryY=0.5;entryPerimeter=0;lucidId=y1XyO4l4.1dw;" edge="1" parent="1" source="kMKTAfwcoq6TKuCzOSCz-129" target="kMKTAfwcoq6TKuCzOSCz-111">
          <mxGeometry width="100" height="100" relative="1" as="geometry">
            <Array as="points" />
            <mxPoint x="-390.4050000000002" y="982.5" as="sourcePoint" />
          </mxGeometry>
        </mxCell>
        <mxCell id="kMKTAfwcoq6TKuCzOSCz-123" value="Users" style="rounded=0;whiteSpace=wrap;html=1;" vertex="1" parent="1">
          <mxGeometry x="-645" y="210" width="120" height="45" as="geometry" />
        </mxCell>
        <mxCell id="kMKTAfwcoq6TKuCzOSCz-126" value="University" style="rounded=0;whiteSpace=wrap;html=1;" vertex="1" parent="1">
          <mxGeometry x="-1250" y="472.5" width="120" height="60" as="geometry" />
        </mxCell>
        <mxCell id="kMKTAfwcoq6TKuCzOSCz-128" value="department" style="rounded=0;whiteSpace=wrap;html=1;" vertex="1" parent="1">
          <mxGeometry x="-1140" y="680" width="120" height="60" as="geometry" />
        </mxCell>
        <mxCell id="kMKTAfwcoq6TKuCzOSCz-129" value="Document" style="rounded=0;whiteSpace=wrap;html=1;" vertex="1" parent="1">
          <mxGeometry x="-390" y="953.5" width="120" height="60" as="geometry" />
        </mxCell>
        <mxCell id="kMKTAfwcoq6TKuCzOSCz-130" value="" style="endArrow=classic;html=1;rounded=0;entryX=1;entryY=0.5;entryDx=0;entryDy=0;" edge="1" parent="1" source="kMKTAfwcoq6TKuCzOSCz-129" target="kMKTAfwcoq6TKuCzOSCz-115">
          <mxGeometry width="50" height="50" relative="1" as="geometry">
            <mxPoint x="-600" y="1020" as="sourcePoint" />
            <mxPoint x="-550" y="970" as="targetPoint" />
          </mxGeometry>
        </mxCell>
        <mxCell id="kMKTAfwcoq6TKuCzOSCz-131" value="" style="endArrow=classic;html=1;rounded=0;entryX=1;entryY=0.5;entryDx=0;entryDy=0;exitX=0.383;exitY=0.942;exitDx=0;exitDy=0;exitPerimeter=0;" edge="1" parent="1" source="kMKTAfwcoq6TKuCzOSCz-129" target="kMKTAfwcoq6TKuCzOSCz-112">
          <mxGeometry width="50" height="50" relative="1" as="geometry">
            <mxPoint x="-600" y="1020" as="sourcePoint" />
            <mxPoint x="-550" y="970" as="targetPoint" />
          </mxGeometry>
        </mxCell>
        <mxCell id="kMKTAfwcoq6TKuCzOSCz-132" value="" style="endArrow=classic;html=1;rounded=0;exitX=0.361;exitY=0.019;exitDx=0;exitDy=0;exitPerimeter=0;" edge="1" parent="1" source="kMKTAfwcoq6TKuCzOSCz-129" target="kMKTAfwcoq6TKuCzOSCz-107">
          <mxGeometry width="50" height="50" relative="1" as="geometry">
            <mxPoint x="-530" y="1050" as="sourcePoint" />
            <mxPoint x="-480" y="1000" as="targetPoint" />
          </mxGeometry>
        </mxCell>
        <mxCell id="kMKTAfwcoq6TKuCzOSCz-133" value="contact_number" style="html=1;overflow=block;blockSpacing=1;whiteSpace=wrap;ellipse;fontSize=16.7;fontColor=#3a414a;spacing=3.8;strokeColor=#3a414a;strokeOpacity=100;fillOpacity=100;rounded=1;absoluteArcSize=1;arcSize=9;fillColor=#ffffff;strokeWidth=0.8;lucidId=vwXysebvJJaR;" vertex="1" parent="1">
          <mxGeometry x="-720" y="435" width="135" height="45" as="geometry" />
        </mxCell>
        <mxCell id="kMKTAfwcoq6TKuCzOSCz-134" value="" style="endArrow=classic;html=1;rounded=0;exitX=0.5;exitY=1;exitDx=0;exitDy=0;" edge="1" parent="1" source="kMKTAfwcoq6TKuCzOSCz-123" target="kMKTAfwcoq6TKuCzOSCz-133">
          <mxGeometry width="50" height="50" relative="1" as="geometry">
            <mxPoint x="-510" y="490" as="sourcePoint" />
            <mxPoint x="-460" y="440" as="targetPoint" />
          </mxGeometry>
        </mxCell>
        <mxCell id="kMKTAfwcoq6TKuCzOSCz-135" value="bio" style="html=1;overflow=block;blockSpacing=1;whiteSpace=wrap;ellipse;fontSize=16.7;fontColor=#3a414a;spacing=3.8;strokeColor=#3a414a;strokeOpacity=100;fillOpacity=100;rounded=1;absoluteArcSize=1;arcSize=9;fillColor=#ffffff;strokeWidth=0.8;lucidId=vwXysebvJJaR;" vertex="1" parent="1">
          <mxGeometry x="-525" y="400" width="135" height="50" as="geometry" />
        </mxCell>
        <mxCell id="kMKTAfwcoq6TKuCzOSCz-136" value="" style="endArrow=classic;html=1;rounded=0;exitX=0.75;exitY=1;exitDx=0;exitDy=0;entryX=0.037;entryY=0.222;entryDx=0;entryDy=0;entryPerimeter=0;" edge="1" parent="1" source="kMKTAfwcoq6TKuCzOSCz-123" target="kMKTAfwcoq6TKuCzOSCz-135">
          <mxGeometry width="50" height="50" relative="1" as="geometry">
            <mxPoint x="-568" y="265" as="sourcePoint" />
            <mxPoint x="-628" y="445" as="targetPoint" />
          </mxGeometry>
        </mxCell>
        <mxCell id="kMKTAfwcoq6TKuCzOSCz-137" value="picture" style="html=1;overflow=block;blockSpacing=1;whiteSpace=wrap;ellipse;fontSize=16.7;fontColor=#3a414a;spacing=3.8;strokeColor=#3a414a;strokeOpacity=100;fillOpacity=100;rounded=1;absoluteArcSize=1;arcSize=9;fillColor=#ffffff;strokeWidth=0.8;lucidId=vwXysebvJJaR;" vertex="1" parent="1">
          <mxGeometry x="-540" y="480" width="135" height="45" as="geometry" />
        </mxCell>
        <mxCell id="kMKTAfwcoq6TKuCzOSCz-138" value="" style="endArrow=classic;html=1;rounded=0;entryX=0;entryY=0;entryDx=0;entryDy=0;exitX=0.625;exitY=1.007;exitDx=0;exitDy=0;exitPerimeter=0;" edge="1" parent="1" source="kMKTAfwcoq6TKuCzOSCz-123" target="kMKTAfwcoq6TKuCzOSCz-137">
          <mxGeometry width="50" height="50" relative="1" as="geometry">
            <mxPoint x="-530" y="380" as="sourcePoint" />
            <mxPoint x="-480" y="330" as="targetPoint" />
          </mxGeometry>
        </mxCell>
        <mxCell id="kMKTAfwcoq6TKuCzOSCz-140" value="tag_name" style="html=1;overflow=block;blockSpacing=1;whiteSpace=wrap;ellipse;fontSize=16.7;fontColor=#3a414a;spacing=3.8;strokeColor=#3a414a;strokeOpacity=100;fillOpacity=100;rounded=1;absoluteArcSize=1;arcSize=9;fillColor=#ffffff;strokeWidth=0.8;lucidId=CTXyg3M-bdhD;" vertex="1" parent="1">
          <mxGeometry x="-900" y="1356.5" width="135" height="45" as="geometry" />
        </mxCell>
        <mxCell id="kMKTAfwcoq6TKuCzOSCz-141" value="&lt;u&gt;tag_id&lt;/u&gt;" style="html=1;overflow=block;blockSpacing=1;whiteSpace=wrap;ellipse;fontSize=16.7;fontColor=#3a414a;spacing=3.8;strokeColor=#3a414a;strokeOpacity=100;fillOpacity=100;rounded=1;absoluteArcSize=1;arcSize=9;fillColor=#ffffff;strokeWidth=0.8;lucidId=CTXyEhZ~NJwq;" vertex="1" parent="1">
          <mxGeometry x="-885" y="1281.5" width="135" height="45" as="geometry" />
        </mxCell>
        <mxCell id="kMKTAfwcoq6TKuCzOSCz-142" value="tags" style="rounded=0;whiteSpace=wrap;html=1;" vertex="1" parent="1">
          <mxGeometry x="-600" y="1200" width="120" height="60" as="geometry" />
        </mxCell>
        <mxCell id="kMKTAfwcoq6TKuCzOSCz-143" value="" style="endArrow=classic;html=1;rounded=0;entryX=1;entryY=0.5;entryDx=0;entryDy=0;" edge="1" parent="1" source="kMKTAfwcoq6TKuCzOSCz-142" target="kMKTAfwcoq6TKuCzOSCz-141">
          <mxGeometry width="50" height="50" relative="1" as="geometry">
            <mxPoint x="-810" y="1266.5" as="sourcePoint" />
            <mxPoint x="-760" y="1216.5" as="targetPoint" />
          </mxGeometry>
        </mxCell>
        <mxCell id="kMKTAfwcoq6TKuCzOSCz-144" value="" style="endArrow=classic;html=1;rounded=0;entryX=1;entryY=0.5;entryDx=0;entryDy=0;exitX=0.383;exitY=0.942;exitDx=0;exitDy=0;exitPerimeter=0;" edge="1" parent="1" source="kMKTAfwcoq6TKuCzOSCz-142" target="kMKTAfwcoq6TKuCzOSCz-140">
          <mxGeometry width="50" height="50" relative="1" as="geometry">
            <mxPoint x="-810" y="1266.5" as="sourcePoint" />
            <mxPoint x="-760" y="1216.5" as="targetPoint" />
          </mxGeometry>
        </mxCell>
        <mxCell id="kMKTAfwcoq6TKuCzOSCz-150" style="edgeStyle=orthogonalEdgeStyle;rounded=0;orthogonalLoop=1;jettySize=auto;html=1;exitX=0;exitY=0.5;exitDx=0;exitDy=0;" edge="1" parent="1" source="kMKTAfwcoq6TKuCzOSCz-145">
          <mxGeometry relative="1" as="geometry">
            <mxPoint x="-450" y="1130" as="targetPoint" />
          </mxGeometry>
        </mxCell>
        <mxCell id="kMKTAfwcoq6TKuCzOSCz-145" value="tagged" style="rhombus;whiteSpace=wrap;html=1;" vertex="1" parent="1">
          <mxGeometry x="-450" y="1090" width="80" height="80" as="geometry" />
        </mxCell>
        <mxCell id="kMKTAfwcoq6TKuCzOSCz-146" value="" style="endArrow=none;html=1;rounded=0;" edge="1" parent="1" source="kMKTAfwcoq6TKuCzOSCz-142" target="kMKTAfwcoq6TKuCzOSCz-145">
          <mxGeometry width="50" height="50" relative="1" as="geometry">
            <mxPoint x="-480" y="1210" as="sourcePoint" />
            <mxPoint x="-430" y="1160" as="targetPoint" />
          </mxGeometry>
        </mxCell>
        <mxCell id="kMKTAfwcoq6TKuCzOSCz-147" value="" style="endArrow=none;html=1;rounded=0;entryX=0.567;entryY=0.953;entryDx=0;entryDy=0;entryPerimeter=0;" edge="1" parent="1" source="kMKTAfwcoq6TKuCzOSCz-145" target="kMKTAfwcoq6TKuCzOSCz-129">
          <mxGeometry width="50" height="50" relative="1" as="geometry">
            <mxPoint x="-510" y="1230" as="sourcePoint" />
            <mxPoint x="-460" y="1180" as="targetPoint" />
          </mxGeometry>
        </mxCell>
        <mxCell id="kMKTAfwcoq6TKuCzOSCz-148" value="" style="endArrow=classic;html=1;rounded=0;exitX=0.567;exitY=0.908;exitDx=0;exitDy=0;exitPerimeter=0;entryX=0;entryY=0.5;entryDx=0;entryDy=0;" edge="1" parent="1" source="kMKTAfwcoq6TKuCzOSCz-145" target="kMKTAfwcoq6TKuCzOSCz-149">
          <mxGeometry width="50" height="50" relative="1" as="geometry">
            <mxPoint x="-510" y="1230" as="sourcePoint" />
            <mxPoint x="-340" y="1190" as="targetPoint" />
          </mxGeometry>
        </mxCell>
        <mxCell id="kMKTAfwcoq6TKuCzOSCz-149" value="documents_tags" style="html=1;overflow=block;blockSpacing=1;whiteSpace=wrap;ellipse;fontSize=16.7;fontColor=#3a414a;spacing=3.8;strokeColor=#3a414a;strokeOpacity=100;fillOpacity=100;rounded=1;absoluteArcSize=1;arcSize=9;fillColor=#ffffff;strokeWidth=0.8;lucidId=CTXynaInC8LI;" vertex="1" parent="1">
          <mxGeometry x="-330" y="1180" width="135" height="46" as="geometry" />
        </mxCell>
        <mxCell id="kMKTAfwcoq6TKuCzOSCz-151" value="course_id" style="html=1;overflow=block;blockSpacing=1;whiteSpace=wrap;ellipse;fontSize=16.7;fontColor=#3a414a;fontStyle=4;spacing=3.8;strokeColor=#3a414a;strokeOpacity=100;fillOpacity=100;rounded=1;absoluteArcSize=1;arcSize=9;fillColor=#ffffff;strokeWidth=0.8;lucidId=CTXyAcADFPme;" vertex="1" parent="1">
          <mxGeometry x="45" y="225" width="135" height="45" as="geometry" />
        </mxCell>
        <mxCell id="kMKTAfwcoq6TKuCzOSCz-152" value="course_code" style="html=1;overflow=block;blockSpacing=1;whiteSpace=wrap;ellipse;fontSize=16.7;fontColor=#3a414a;spacing=3.8;strokeColor=#3a414a;strokeOpacity=100;fillOpacity=100;rounded=1;absoluteArcSize=1;arcSize=9;fillColor=#ffffff;strokeWidth=0.8;lucidId=CTXyg3M-bdhD;" vertex="1" parent="1">
          <mxGeometry x="15" y="495" width="135" height="45" as="geometry" />
        </mxCell>
        <mxCell id="kMKTAfwcoq6TKuCzOSCz-153" value="course_name" style="html=1;overflow=block;blockSpacing=1;whiteSpace=wrap;ellipse;fontSize=16.7;fontColor=#3a414a;spacing=3.8;strokeColor=#3a414a;strokeOpacity=100;fillOpacity=100;rounded=1;absoluteArcSize=1;arcSize=9;fillColor=#ffffff;strokeWidth=0.8;lucidId=CTXyEhZ~NJwq;" vertex="1" parent="1">
          <mxGeometry x="30" y="420" width="135" height="45" as="geometry" />
        </mxCell>
        <mxCell id="kMKTAfwcoq6TKuCzOSCz-154" value="Courses" style="rounded=0;whiteSpace=wrap;html=1;" vertex="1" parent="1">
          <mxGeometry x="315" y="338.5" width="120" height="60" as="geometry" />
        </mxCell>
        <mxCell id="kMKTAfwcoq6TKuCzOSCz-155" value="" style="endArrow=classic;html=1;rounded=0;entryX=1;entryY=0.5;entryDx=0;entryDy=0;" edge="1" parent="1" source="kMKTAfwcoq6TKuCzOSCz-154" target="kMKTAfwcoq6TKuCzOSCz-153">
          <mxGeometry width="50" height="50" relative="1" as="geometry">
            <mxPoint x="105" y="405" as="sourcePoint" />
            <mxPoint x="155" y="355" as="targetPoint" />
          </mxGeometry>
        </mxCell>
        <mxCell id="kMKTAfwcoq6TKuCzOSCz-156" value="" style="endArrow=classic;html=1;rounded=0;entryX=1;entryY=0.5;entryDx=0;entryDy=0;exitX=0.175;exitY=0.947;exitDx=0;exitDy=0;exitPerimeter=0;" edge="1" parent="1" source="kMKTAfwcoq6TKuCzOSCz-154" target="kMKTAfwcoq6TKuCzOSCz-152">
          <mxGeometry width="50" height="50" relative="1" as="geometry">
            <mxPoint x="105" y="405" as="sourcePoint" />
            <mxPoint x="155" y="355" as="targetPoint" />
          </mxGeometry>
        </mxCell>
        <mxCell id="kMKTAfwcoq6TKuCzOSCz-157" value="" style="endArrow=classic;html=1;rounded=0;exitX=0.361;exitY=0.019;exitDx=0;exitDy=0;exitPerimeter=0;" edge="1" parent="1" source="kMKTAfwcoq6TKuCzOSCz-154" target="kMKTAfwcoq6TKuCzOSCz-151">
          <mxGeometry width="50" height="50" relative="1" as="geometry">
            <mxPoint x="175" y="435" as="sourcePoint" />
            <mxPoint x="225" y="385" as="targetPoint" />
          </mxGeometry>
        </mxCell>
        <mxCell id="kMKTAfwcoq6TKuCzOSCz-158" value="department_id" style="html=1;overflow=block;blockSpacing=1;whiteSpace=wrap;ellipse;fontSize=16.7;fontColor=#3a414a;spacing=3.8;strokeColor=#3a414a;strokeOpacity=100;fillOpacity=100;rounded=1;absoluteArcSize=1;arcSize=9;fillColor=#ffffff;strokeWidth=0.8;lucidId=CTXyEhZ~NJwq;" vertex="1" parent="1">
          <mxGeometry x="232.5" y="480" width="135" height="45" as="geometry" />
        </mxCell>
        <mxCell id="kMKTAfwcoq6TKuCzOSCz-159" value="" style="endArrow=classic;html=1;rounded=0;entryX=1;entryY=0.5;entryDx=0;entryDy=0;exitX=0.75;exitY=1;exitDx=0;exitDy=0;" edge="1" parent="1" target="kMKTAfwcoq6TKuCzOSCz-158" source="kMKTAfwcoq6TKuCzOSCz-154">
          <mxGeometry width="50" height="50" relative="1" as="geometry">
            <mxPoint x="517.5" y="450" as="sourcePoint" />
            <mxPoint x="357.5" y="415" as="targetPoint" />
          </mxGeometry>
        </mxCell>
        <mxCell id="kMKTAfwcoq6TKuCzOSCz-160" value="instructor_name" style="html=1;overflow=block;blockSpacing=1;whiteSpace=wrap;ellipse;fontSize=16.7;fontColor=#3a414a;spacing=3.8;strokeColor=#3a414a;strokeOpacity=100;fillOpacity=100;rounded=1;absoluteArcSize=1;arcSize=9;fillColor=#ffffff;strokeWidth=0.8;lucidId=CTXyEhZ~NJwq;" vertex="1" parent="1">
          <mxGeometry x="200" y="225" width="135" height="45" as="geometry" />
        </mxCell>
        <mxCell id="kMKTAfwcoq6TKuCzOSCz-161" value="" style="endArrow=classic;html=1;rounded=0;entryX=1;entryY=0.5;entryDx=0;entryDy=0;" edge="1" parent="1" target="kMKTAfwcoq6TKuCzOSCz-160">
          <mxGeometry width="50" height="50" relative="1" as="geometry">
            <mxPoint x="360" y="340" as="sourcePoint" />
            <mxPoint x="325" y="160" as="targetPoint" />
          </mxGeometry>
        </mxCell>
        <mxCell id="kMKTAfwcoq6TKuCzOSCz-162" value="" style="endArrow=classic;html=1;rounded=0;entryX=0.222;entryY=1;entryDx=0;entryDy=0;entryPerimeter=0;" edge="1" parent="1" source="kMKTAfwcoq6TKuCzOSCz-154" target="kMKTAfwcoq6TKuCzOSCz-163">
          <mxGeometry width="50" height="50" relative="1" as="geometry">
            <mxPoint x="370" y="350" as="sourcePoint" />
            <mxPoint x="345" y="258" as="targetPoint" />
          </mxGeometry>
        </mxCell>
        <mxCell id="kMKTAfwcoq6TKuCzOSCz-163" value="semester" style="html=1;overflow=block;blockSpacing=1;whiteSpace=wrap;ellipse;fontSize=16.7;fontColor=#3a414a;spacing=3.8;strokeColor=#3a414a;strokeOpacity=100;fillOpacity=100;rounded=1;absoluteArcSize=1;arcSize=9;fillColor=#ffffff;strokeWidth=0.8;lucidId=CTXyEhZ~NJwq;" vertex="1" parent="1">
          <mxGeometry x="390" y="225" width="135" height="45" as="geometry" />
        </mxCell>
        <mxCell id="kMKTAfwcoq6TKuCzOSCz-164" value="" style="endArrow=classic;html=1;rounded=0;entryX=0.222;entryY=1;entryDx=0;entryDy=0;entryPerimeter=0;exitX=1;exitY=0;exitDx=0;exitDy=0;" edge="1" parent="1" target="kMKTAfwcoq6TKuCzOSCz-165" source="kMKTAfwcoq6TKuCzOSCz-154">
          <mxGeometry width="50" height="50" relative="1" as="geometry">
            <mxPoint x="525" y="364.5" as="sourcePoint" />
            <mxPoint x="481" y="283.5" as="targetPoint" />
          </mxGeometry>
        </mxCell>
        <mxCell id="kMKTAfwcoq6TKuCzOSCz-165" value="academic_year" style="html=1;overflow=block;blockSpacing=1;whiteSpace=wrap;ellipse;fontSize=16.7;fontColor=#3a414a;spacing=3.8;strokeColor=#3a414a;strokeOpacity=100;fillOpacity=100;rounded=1;absoluteArcSize=1;arcSize=9;fillColor=#ffffff;strokeWidth=0.8;lucidId=CTXyEhZ~NJwq;" vertex="1" parent="1">
          <mxGeometry x="526" y="250.5" width="135" height="45" as="geometry" />
        </mxCell>
        <mxCell id="kMKTAfwcoq6TKuCzOSCz-166" value="access_key_id" style="html=1;overflow=block;blockSpacing=1;whiteSpace=wrap;ellipse;fontSize=16.7;fontColor=#3a414a;fontStyle=4;spacing=3.8;strokeColor=#3a414a;strokeOpacity=100;fillOpacity=100;rounded=1;absoluteArcSize=1;arcSize=9;fillColor=#ffffff;strokeWidth=0.8;lucidId=CTXyAcADFPme;" vertex="1" parent="1">
          <mxGeometry x="480" y="855" width="135" height="45" as="geometry" />
        </mxCell>
        <mxCell id="kMKTAfwcoq6TKuCzOSCz-168" value="access_key" style="html=1;overflow=block;blockSpacing=1;whiteSpace=wrap;ellipse;fontSize=16.7;fontColor=#3a414a;spacing=3.8;strokeColor=#3a414a;strokeOpacity=100;fillOpacity=100;rounded=1;absoluteArcSize=1;arcSize=9;fillColor=#ffffff;strokeWidth=0.8;lucidId=CTXyEhZ~NJwq;" vertex="1" parent="1">
          <mxGeometry x="465" y="1050" width="135" height="45" as="geometry" />
        </mxCell>
        <mxCell id="kMKTAfwcoq6TKuCzOSCz-169" value="file_access_keys" style="rounded=0;whiteSpace=wrap;html=1;" vertex="1" parent="1">
          <mxGeometry x="750" y="968.5" width="120" height="60" as="geometry" />
        </mxCell>
        <mxCell id="kMKTAfwcoq6TKuCzOSCz-170" value="" style="endArrow=classic;html=1;rounded=0;entryX=1;entryY=0.5;entryDx=0;entryDy=0;" edge="1" parent="1" source="kMKTAfwcoq6TKuCzOSCz-169" target="kMKTAfwcoq6TKuCzOSCz-168">
          <mxGeometry width="50" height="50" relative="1" as="geometry">
            <mxPoint x="540" y="1035" as="sourcePoint" />
            <mxPoint x="590" y="985" as="targetPoint" />
          </mxGeometry>
        </mxCell>
        <mxCell id="kMKTAfwcoq6TKuCzOSCz-172" value="" style="endArrow=classic;html=1;rounded=0;exitX=0.361;exitY=0.019;exitDx=0;exitDy=0;exitPerimeter=0;" edge="1" parent="1" source="kMKTAfwcoq6TKuCzOSCz-169" target="kMKTAfwcoq6TKuCzOSCz-166">
          <mxGeometry width="50" height="50" relative="1" as="geometry">
            <mxPoint x="610" y="1065" as="sourcePoint" />
            <mxPoint x="660" y="1015" as="targetPoint" />
          </mxGeometry>
        </mxCell>
        <mxCell id="kMKTAfwcoq6TKuCzOSCz-173" value="document_id" style="html=1;overflow=block;blockSpacing=1;whiteSpace=wrap;ellipse;fontSize=16.7;fontColor=#3a414a;spacing=3.8;strokeColor=#3a414a;strokeOpacity=100;fillOpacity=100;rounded=1;absoluteArcSize=1;arcSize=9;fillColor=#ffffff;strokeWidth=0.8;lucidId=CTXyEhZ~NJwq;" vertex="1" parent="1">
          <mxGeometry x="667.5" y="1110" width="135" height="45" as="geometry" />
        </mxCell>
        <mxCell id="kMKTAfwcoq6TKuCzOSCz-174" value="" style="endArrow=classic;html=1;rounded=0;entryX=0.5;entryY=0;entryDx=0;entryDy=0;exitX=0.25;exitY=1;exitDx=0;exitDy=0;" edge="1" parent="1" source="kMKTAfwcoq6TKuCzOSCz-169" target="kMKTAfwcoq6TKuCzOSCz-173">
          <mxGeometry width="50" height="50" relative="1" as="geometry">
            <mxPoint x="952.5" y="1080" as="sourcePoint" />
            <mxPoint x="792.5" y="1045" as="targetPoint" />
          </mxGeometry>
        </mxCell>
        <mxCell id="kMKTAfwcoq6TKuCzOSCz-175" value="is_used" style="html=1;overflow=block;blockSpacing=1;whiteSpace=wrap;ellipse;fontSize=16.7;fontColor=#3a414a;spacing=3.8;strokeColor=#3a414a;strokeOpacity=100;fillOpacity=100;rounded=1;absoluteArcSize=1;arcSize=9;fillColor=#ffffff;strokeWidth=0.8;lucidId=CTXyEhZ~NJwq;" vertex="1" parent="1">
          <mxGeometry x="635" y="855" width="135" height="45" as="geometry" />
        </mxCell>
        <mxCell id="kMKTAfwcoq6TKuCzOSCz-176" value="" style="endArrow=classic;html=1;rounded=0;entryX=1;entryY=0.5;entryDx=0;entryDy=0;" edge="1" parent="1" target="kMKTAfwcoq6TKuCzOSCz-175">
          <mxGeometry width="50" height="50" relative="1" as="geometry">
            <mxPoint x="795" y="970" as="sourcePoint" />
            <mxPoint x="760" y="790" as="targetPoint" />
          </mxGeometry>
        </mxCell>
        <mxCell id="kMKTAfwcoq6TKuCzOSCz-177" value="" style="endArrow=classic;html=1;rounded=0;entryX=0.222;entryY=1;entryDx=0;entryDy=0;entryPerimeter=0;" edge="1" parent="1" source="kMKTAfwcoq6TKuCzOSCz-169" target="kMKTAfwcoq6TKuCzOSCz-178">
          <mxGeometry width="50" height="50" relative="1" as="geometry">
            <mxPoint x="805" y="980" as="sourcePoint" />
            <mxPoint x="780" y="888" as="targetPoint" />
          </mxGeometry>
        </mxCell>
        <mxCell id="kMKTAfwcoq6TKuCzOSCz-178" value="date_created" style="html=1;overflow=block;blockSpacing=1;whiteSpace=wrap;ellipse;fontSize=16.7;fontColor=#3a414a;spacing=3.8;strokeColor=#3a414a;strokeOpacity=100;fillOpacity=100;rounded=1;absoluteArcSize=1;arcSize=9;fillColor=#ffffff;strokeWidth=0.8;lucidId=CTXyEhZ~NJwq;" vertex="1" parent="1">
          <mxGeometry x="825" y="855" width="135" height="45" as="geometry" />
        </mxCell>
        <mxCell id="kMKTAfwcoq6TKuCzOSCz-179" value="" style="endArrow=classic;html=1;rounded=0;entryX=0.222;entryY=1;entryDx=0;entryDy=0;entryPerimeter=0;exitX=1;exitY=0;exitDx=0;exitDy=0;" edge="1" parent="1" source="kMKTAfwcoq6TKuCzOSCz-169" target="kMKTAfwcoq6TKuCzOSCz-180">
          <mxGeometry width="50" height="50" relative="1" as="geometry">
            <mxPoint x="960" y="994.5" as="sourcePoint" />
            <mxPoint x="916" y="913.5" as="targetPoint" />
          </mxGeometry>
        </mxCell>
        <mxCell id="kMKTAfwcoq6TKuCzOSCz-180" value="used_date" style="html=1;overflow=block;blockSpacing=1;whiteSpace=wrap;ellipse;fontSize=16.7;fontColor=#3a414a;spacing=3.8;strokeColor=#3a414a;strokeOpacity=100;fillOpacity=100;rounded=1;absoluteArcSize=1;arcSize=9;fillColor=#ffffff;strokeWidth=0.8;lucidId=CTXyEhZ~NJwq;" vertex="1" parent="1">
          <mxGeometry x="961" y="880.5" width="135" height="45" as="geometry" />
        </mxCell>
        <mxCell id="kMKTAfwcoq6TKuCzOSCz-181" value="stats_id" style="html=1;overflow=block;blockSpacing=1;whiteSpace=wrap;ellipse;fontSize=16.7;fontColor=#3a414a;fontStyle=4;spacing=3.8;strokeColor=#3a414a;strokeOpacity=100;fillOpacity=100;rounded=1;absoluteArcSize=1;arcSize=9;fillColor=#ffffff;strokeWidth=0.8;lucidId=CTXyAcADFPme;" vertex="1" parent="1">
          <mxGeometry x="659" y="352.5" width="135" height="45" as="geometry" />
        </mxCell>
        <mxCell id="kMKTAfwcoq6TKuCzOSCz-183" value="document_stats" style="rounded=0;whiteSpace=wrap;html=1;" vertex="1" parent="1">
          <mxGeometry x="929" y="466" width="120" height="60" as="geometry" />
        </mxCell>
        <mxCell id="kMKTAfwcoq6TKuCzOSCz-185" value="" style="endArrow=classic;html=1;rounded=0;exitX=0.361;exitY=0.019;exitDx=0;exitDy=0;exitPerimeter=0;" edge="1" parent="1" source="kMKTAfwcoq6TKuCzOSCz-183" target="kMKTAfwcoq6TKuCzOSCz-181">
          <mxGeometry width="50" height="50" relative="1" as="geometry">
            <mxPoint x="789" y="562.5" as="sourcePoint" />
            <mxPoint x="839" y="512.5" as="targetPoint" />
          </mxGeometry>
        </mxCell>
        <mxCell id="kMKTAfwcoq6TKuCzOSCz-186" value="document_id" style="html=1;overflow=block;blockSpacing=1;whiteSpace=wrap;ellipse;fontSize=16.7;fontColor=#3a414a;spacing=3.8;strokeColor=#3a414a;strokeOpacity=100;fillOpacity=100;rounded=1;absoluteArcSize=1;arcSize=9;fillColor=#ffffff;strokeWidth=0.8;lucidId=CTXyEhZ~NJwq;" vertex="1" parent="1">
          <mxGeometry x="846.5" y="607.5" width="135" height="45" as="geometry" />
        </mxCell>
        <mxCell id="kMKTAfwcoq6TKuCzOSCz-187" value="" style="endArrow=classic;html=1;rounded=0;entryX=0.5;entryY=0;entryDx=0;entryDy=0;exitX=0.25;exitY=1;exitDx=0;exitDy=0;" edge="1" parent="1" source="kMKTAfwcoq6TKuCzOSCz-183" target="kMKTAfwcoq6TKuCzOSCz-186">
          <mxGeometry width="50" height="50" relative="1" as="geometry">
            <mxPoint x="1131.5" y="577.5" as="sourcePoint" />
            <mxPoint x="971.5" y="542.5" as="targetPoint" />
          </mxGeometry>
        </mxCell>
        <mxCell id="kMKTAfwcoq6TKuCzOSCz-188" value="views" style="html=1;overflow=block;blockSpacing=1;whiteSpace=wrap;ellipse;fontSize=16.7;fontColor=#3a414a;spacing=3.8;strokeColor=#3a414a;strokeOpacity=100;fillOpacity=100;rounded=1;absoluteArcSize=1;arcSize=9;fillColor=#ffffff;strokeWidth=0.8;lucidId=CTXyEhZ~NJwq;" vertex="1" parent="1">
          <mxGeometry x="814" y="352.5" width="135" height="45" as="geometry" />
        </mxCell>
        <mxCell id="kMKTAfwcoq6TKuCzOSCz-189" value="" style="endArrow=classic;html=1;rounded=0;" edge="1" parent="1" target="kMKTAfwcoq6TKuCzOSCz-188">
          <mxGeometry width="50" height="50" relative="1" as="geometry">
            <mxPoint x="974" y="467.5" as="sourcePoint" />
            <mxPoint x="920" y="400" as="targetPoint" />
          </mxGeometry>
        </mxCell>
        <mxCell id="kMKTAfwcoq6TKuCzOSCz-190" value="" style="endArrow=classic;html=1;rounded=0;entryX=0.222;entryY=1;entryDx=0;entryDy=0;entryPerimeter=0;" edge="1" parent="1" source="kMKTAfwcoq6TKuCzOSCz-183" target="kMKTAfwcoq6TKuCzOSCz-191">
          <mxGeometry width="50" height="50" relative="1" as="geometry">
            <mxPoint x="984" y="477.5" as="sourcePoint" />
            <mxPoint x="959" y="385.5" as="targetPoint" />
          </mxGeometry>
        </mxCell>
        <mxCell id="kMKTAfwcoq6TKuCzOSCz-191" value="purchases" style="html=1;overflow=block;blockSpacing=1;whiteSpace=wrap;ellipse;fontSize=16.7;fontColor=#3a414a;spacing=3.8;strokeColor=#3a414a;strokeOpacity=100;fillOpacity=100;rounded=1;absoluteArcSize=1;arcSize=9;fillColor=#ffffff;strokeWidth=0.8;lucidId=CTXyEhZ~NJwq;" vertex="1" parent="1">
          <mxGeometry x="1004" y="352.5" width="135" height="45" as="geometry" />
        </mxCell>
        <mxCell id="kMKTAfwcoq6TKuCzOSCz-194" value="transactions_id" style="html=1;overflow=block;blockSpacing=1;whiteSpace=wrap;ellipse;fontSize=16.7;fontColor=#3a414a;fontStyle=4;spacing=3.8;strokeColor=#3a414a;strokeOpacity=100;fillOpacity=100;rounded=1;absoluteArcSize=1;arcSize=9;fillColor=#ffffff;strokeWidth=0.8;lucidId=CTXyAcADFPme;" vertex="1" parent="1">
          <mxGeometry x="541" y="1480" width="135" height="45" as="geometry" />
        </mxCell>
        <mxCell id="kMKTAfwcoq6TKuCzOSCz-195" value="amount" style="html=1;overflow=block;blockSpacing=1;whiteSpace=wrap;ellipse;fontSize=16.7;fontColor=#3a414a;spacing=3.8;strokeColor=#3a414a;strokeOpacity=100;fillOpacity=100;rounded=1;absoluteArcSize=1;arcSize=9;fillColor=#ffffff;strokeWidth=0.8;lucidId=CTXyEhZ~NJwq;" vertex="1" parent="1">
          <mxGeometry x="525" y="1675" width="135" height="45" as="geometry" />
        </mxCell>
        <mxCell id="kMKTAfwcoq6TKuCzOSCz-196" value="transactions" style="rounded=0;whiteSpace=wrap;html=1;" vertex="1" parent="1">
          <mxGeometry x="810" y="1593.5" width="120" height="60" as="geometry" />
        </mxCell>
        <mxCell id="kMKTAfwcoq6TKuCzOSCz-197" value="" style="endArrow=classic;html=1;rounded=0;entryX=1;entryY=0.5;entryDx=0;entryDy=0;" edge="1" parent="1" source="kMKTAfwcoq6TKuCzOSCz-196" target="kMKTAfwcoq6TKuCzOSCz-195">
          <mxGeometry width="50" height="50" relative="1" as="geometry">
            <mxPoint x="600" y="1660" as="sourcePoint" />
            <mxPoint x="650" y="1610" as="targetPoint" />
          </mxGeometry>
        </mxCell>
        <mxCell id="kMKTAfwcoq6TKuCzOSCz-198" value="" style="endArrow=classic;html=1;rounded=0;exitX=0.361;exitY=0.019;exitDx=0;exitDy=0;exitPerimeter=0;" edge="1" parent="1" source="kMKTAfwcoq6TKuCzOSCz-196" target="kMKTAfwcoq6TKuCzOSCz-194">
          <mxGeometry width="50" height="50" relative="1" as="geometry">
            <mxPoint x="670" y="1690" as="sourcePoint" />
            <mxPoint x="720" y="1640" as="targetPoint" />
          </mxGeometry>
        </mxCell>
        <mxCell id="kMKTAfwcoq6TKuCzOSCz-199" value="document_id" style="html=1;overflow=block;blockSpacing=1;whiteSpace=wrap;ellipse;fontSize=16.7;fontColor=#3a414a;spacing=3.8;strokeColor=#3a414a;strokeOpacity=100;fillOpacity=100;rounded=1;absoluteArcSize=1;arcSize=9;fillColor=#ffffff;strokeWidth=0.8;lucidId=CTXyEhZ~NJwq;" vertex="1" parent="1">
          <mxGeometry x="727.5" y="1735" width="135" height="45" as="geometry" />
        </mxCell>
        <mxCell id="kMKTAfwcoq6TKuCzOSCz-200" value="" style="endArrow=classic;html=1;rounded=0;entryX=0.5;entryY=0;entryDx=0;entryDy=0;exitX=0.25;exitY=1;exitDx=0;exitDy=0;" edge="1" parent="1" source="kMKTAfwcoq6TKuCzOSCz-196" target="kMKTAfwcoq6TKuCzOSCz-199">
          <mxGeometry width="50" height="50" relative="1" as="geometry">
            <mxPoint x="1012.5" y="1705" as="sourcePoint" />
            <mxPoint x="852.5" y="1670" as="targetPoint" />
          </mxGeometry>
        </mxCell>
        <mxCell id="kMKTAfwcoq6TKuCzOSCz-201" value="user_id" style="html=1;overflow=block;blockSpacing=1;whiteSpace=wrap;ellipse;fontSize=16.7;fontColor=#3a414a;spacing=3.8;strokeColor=#3a414a;strokeOpacity=100;fillOpacity=100;rounded=1;absoluteArcSize=1;arcSize=9;fillColor=#ffffff;strokeWidth=0.8;lucidId=CTXyEhZ~NJwq;" vertex="1" parent="1">
          <mxGeometry x="695" y="1480" width="135" height="45" as="geometry" />
        </mxCell>
        <mxCell id="kMKTAfwcoq6TKuCzOSCz-202" value="" style="endArrow=classic;html=1;rounded=0;entryX=1;entryY=0.5;entryDx=0;entryDy=0;" edge="1" parent="1" target="kMKTAfwcoq6TKuCzOSCz-201">
          <mxGeometry width="50" height="50" relative="1" as="geometry">
            <mxPoint x="855" y="1595" as="sourcePoint" />
            <mxPoint x="820" y="1415" as="targetPoint" />
          </mxGeometry>
        </mxCell>
        <mxCell id="kMKTAfwcoq6TKuCzOSCz-203" value="" style="endArrow=classic;html=1;rounded=0;entryX=0.222;entryY=1;entryDx=0;entryDy=0;entryPerimeter=0;" edge="1" parent="1" source="kMKTAfwcoq6TKuCzOSCz-196" target="kMKTAfwcoq6TKuCzOSCz-204">
          <mxGeometry width="50" height="50" relative="1" as="geometry">
            <mxPoint x="865" y="1605" as="sourcePoint" />
            <mxPoint x="840" y="1513" as="targetPoint" />
          </mxGeometry>
        </mxCell>
        <mxCell id="kMKTAfwcoq6TKuCzOSCz-204" value="transaction_date" style="html=1;overflow=block;blockSpacing=1;whiteSpace=wrap;ellipse;fontSize=16.7;fontColor=#3a414a;spacing=3.8;strokeColor=#3a414a;strokeOpacity=100;fillOpacity=100;rounded=1;absoluteArcSize=1;arcSize=9;fillColor=#ffffff;strokeWidth=0.8;lucidId=CTXyEhZ~NJwq;" vertex="1" parent="1">
          <mxGeometry x="885" y="1480" width="135" height="45" as="geometry" />
        </mxCell>
        <mxCell id="kMKTAfwcoq6TKuCzOSCz-205" value="" style="endArrow=classic;html=1;rounded=0;entryX=0.222;entryY=1;entryDx=0;entryDy=0;entryPerimeter=0;exitX=1;exitY=0;exitDx=0;exitDy=0;" edge="1" parent="1" source="kMKTAfwcoq6TKuCzOSCz-196" target="kMKTAfwcoq6TKuCzOSCz-206">
          <mxGeometry width="50" height="50" relative="1" as="geometry">
            <mxPoint x="1020" y="1619.5" as="sourcePoint" />
            <mxPoint x="976" y="1538.5" as="targetPoint" />
          </mxGeometry>
        </mxCell>
        <mxCell id="kMKTAfwcoq6TKuCzOSCz-206" value="transaction_type" style="html=1;overflow=block;blockSpacing=1;whiteSpace=wrap;ellipse;fontSize=16.7;fontColor=#3a414a;spacing=3.8;strokeColor=#3a414a;strokeOpacity=100;fillOpacity=100;rounded=1;absoluteArcSize=1;arcSize=9;fillColor=#ffffff;strokeWidth=0.8;lucidId=CTXyEhZ~NJwq;" vertex="1" parent="1">
          <mxGeometry x="1021" y="1505.5" width="135" height="45" as="geometry" />
        </mxCell>
        <mxCell id="kMKTAfwcoq6TKuCzOSCz-207" value="" style="endArrow=classic;html=1;rounded=0;entryX=0.222;entryY=1;entryDx=0;entryDy=0;entryPerimeter=0;exitX=1;exitY=0.5;exitDx=0;exitDy=0;" edge="1" parent="1" target="kMKTAfwcoq6TKuCzOSCz-208" source="kMKTAfwcoq6TKuCzOSCz-196">
          <mxGeometry width="50" height="50" relative="1" as="geometry">
            <mxPoint x="940" y="1648.5" as="sourcePoint" />
            <mxPoint x="986" y="1593" as="targetPoint" />
          </mxGeometry>
        </mxCell>
        <mxCell id="kMKTAfwcoq6TKuCzOSCz-208" value="remaining_balance" style="html=1;overflow=block;blockSpacing=1;whiteSpace=wrap;ellipse;fontSize=16.7;fontColor=#3a414a;spacing=3.8;strokeColor=#3a414a;strokeOpacity=100;fillOpacity=100;rounded=1;absoluteArcSize=1;arcSize=9;fillColor=#ffffff;strokeWidth=0.8;lucidId=CTXyEhZ~NJwq;" vertex="1" parent="1">
          <mxGeometry x="1031" y="1560" width="179" height="45" as="geometry" />
        </mxCell>
        <mxCell id="kMKTAfwcoq6TKuCzOSCz-225" value="loan_id" style="html=1;overflow=block;blockSpacing=1;whiteSpace=wrap;ellipse;fontSize=16.7;fontColor=#3a414a;fontStyle=4;spacing=3.8;strokeColor=#3a414a;strokeOpacity=100;fillOpacity=100;rounded=1;absoluteArcSize=1;arcSize=9;fillColor=#ffffff;strokeWidth=0.8;lucidId=CTXyAcADFPme;" vertex="1" parent="1">
          <mxGeometry x="936" y="1800" width="135" height="45" as="geometry" />
        </mxCell>
        <mxCell id="kMKTAfwcoq6TKuCzOSCz-226" value="approval_date" style="html=1;overflow=block;blockSpacing=1;whiteSpace=wrap;ellipse;fontSize=16.7;fontColor=#3a414a;spacing=3.8;strokeColor=#3a414a;strokeOpacity=100;fillOpacity=100;rounded=1;absoluteArcSize=1;arcSize=9;fillColor=#ffffff;strokeWidth=0.8;lucidId=CTXyEhZ~NJwq;" vertex="1" parent="1">
          <mxGeometry x="920" y="1995" width="135" height="45" as="geometry" />
        </mxCell>
        <mxCell id="kMKTAfwcoq6TKuCzOSCz-227" value="loans" style="rounded=0;whiteSpace=wrap;html=1;" vertex="1" parent="1">
          <mxGeometry x="1205" y="1913.5" width="120" height="60" as="geometry" />
        </mxCell>
        <mxCell id="kMKTAfwcoq6TKuCzOSCz-228" value="" style="endArrow=classic;html=1;rounded=0;entryX=1;entryY=0.5;entryDx=0;entryDy=0;" edge="1" parent="1" source="kMKTAfwcoq6TKuCzOSCz-227" target="kMKTAfwcoq6TKuCzOSCz-226">
          <mxGeometry width="50" height="50" relative="1" as="geometry">
            <mxPoint x="995" y="1980" as="sourcePoint" />
            <mxPoint x="1045" y="1930" as="targetPoint" />
          </mxGeometry>
        </mxCell>
        <mxCell id="kMKTAfwcoq6TKuCzOSCz-229" value="" style="endArrow=classic;html=1;rounded=0;exitX=0.361;exitY=0.019;exitDx=0;exitDy=0;exitPerimeter=0;" edge="1" parent="1" source="kMKTAfwcoq6TKuCzOSCz-227" target="kMKTAfwcoq6TKuCzOSCz-225">
          <mxGeometry width="50" height="50" relative="1" as="geometry">
            <mxPoint x="1065" y="2010" as="sourcePoint" />
            <mxPoint x="1115" y="1960" as="targetPoint" />
          </mxGeometry>
        </mxCell>
        <mxCell id="kMKTAfwcoq6TKuCzOSCz-232" value="user_id" style="html=1;overflow=block;blockSpacing=1;whiteSpace=wrap;ellipse;fontSize=16.7;fontColor=#3a414a;spacing=3.8;strokeColor=#3a414a;strokeOpacity=100;fillOpacity=100;rounded=1;absoluteArcSize=1;arcSize=9;fillColor=#ffffff;strokeWidth=0.8;lucidId=CTXyEhZ~NJwq;" vertex="1" parent="1">
          <mxGeometry x="1090" y="1800" width="135" height="45" as="geometry" />
        </mxCell>
        <mxCell id="kMKTAfwcoq6TKuCzOSCz-233" value="" style="endArrow=classic;html=1;rounded=0;entryX=1;entryY=0.5;entryDx=0;entryDy=0;" edge="1" parent="1" target="kMKTAfwcoq6TKuCzOSCz-232">
          <mxGeometry width="50" height="50" relative="1" as="geometry">
            <mxPoint x="1250" y="1915" as="sourcePoint" />
            <mxPoint x="1215" y="1735" as="targetPoint" />
          </mxGeometry>
        </mxCell>
        <mxCell id="kMKTAfwcoq6TKuCzOSCz-234" value="" style="endArrow=classic;html=1;rounded=0;entryX=0.222;entryY=1;entryDx=0;entryDy=0;entryPerimeter=0;" edge="1" parent="1" source="kMKTAfwcoq6TKuCzOSCz-227" target="kMKTAfwcoq6TKuCzOSCz-235">
          <mxGeometry width="50" height="50" relative="1" as="geometry">
            <mxPoint x="1260" y="1925" as="sourcePoint" />
            <mxPoint x="1235" y="1833" as="targetPoint" />
          </mxGeometry>
        </mxCell>
        <mxCell id="kMKTAfwcoq6TKuCzOSCz-235" value="amount" style="html=1;overflow=block;blockSpacing=1;whiteSpace=wrap;ellipse;fontSize=16.7;fontColor=#3a414a;spacing=3.8;strokeColor=#3a414a;strokeOpacity=100;fillOpacity=100;rounded=1;absoluteArcSize=1;arcSize=9;fillColor=#ffffff;strokeWidth=0.8;lucidId=CTXyEhZ~NJwq;" vertex="1" parent="1">
          <mxGeometry x="1280" y="1800" width="135" height="45" as="geometry" />
        </mxCell>
        <mxCell id="kMKTAfwcoq6TKuCzOSCz-236" value="" style="endArrow=classic;html=1;rounded=0;entryX=0.222;entryY=1;entryDx=0;entryDy=0;entryPerimeter=0;exitX=1;exitY=0;exitDx=0;exitDy=0;" edge="1" parent="1" source="kMKTAfwcoq6TKuCzOSCz-227" target="kMKTAfwcoq6TKuCzOSCz-237">
          <mxGeometry width="50" height="50" relative="1" as="geometry">
            <mxPoint x="1415" y="1939.5" as="sourcePoint" />
            <mxPoint x="1371" y="1858.5" as="targetPoint" />
          </mxGeometry>
        </mxCell>
        <mxCell id="kMKTAfwcoq6TKuCzOSCz-237" value="status" style="html=1;overflow=block;blockSpacing=1;whiteSpace=wrap;ellipse;fontSize=16.7;fontColor=#3a414a;spacing=3.8;strokeColor=#3a414a;strokeOpacity=100;fillOpacity=100;rounded=1;absoluteArcSize=1;arcSize=9;fillColor=#ffffff;strokeWidth=0.8;lucidId=CTXyEhZ~NJwq;" vertex="1" parent="1">
          <mxGeometry x="1416" y="1825.5" width="135" height="45" as="geometry" />
        </mxCell>
        <mxCell id="kMKTAfwcoq6TKuCzOSCz-238" value="" style="endArrow=classic;html=1;rounded=0;entryX=0.222;entryY=1;entryDx=0;entryDy=0;entryPerimeter=0;exitX=1;exitY=0.5;exitDx=0;exitDy=0;" edge="1" parent="1" source="kMKTAfwcoq6TKuCzOSCz-227" target="kMKTAfwcoq6TKuCzOSCz-239">
          <mxGeometry width="50" height="50" relative="1" as="geometry">
            <mxPoint x="1335" y="1968.5" as="sourcePoint" />
            <mxPoint x="1381" y="1913" as="targetPoint" />
          </mxGeometry>
        </mxCell>
        <mxCell id="kMKTAfwcoq6TKuCzOSCz-239" value="request_date" style="html=1;overflow=block;blockSpacing=1;whiteSpace=wrap;ellipse;fontSize=16.7;fontColor=#3a414a;spacing=3.8;strokeColor=#3a414a;strokeOpacity=100;fillOpacity=100;rounded=1;absoluteArcSize=1;arcSize=9;fillColor=#ffffff;strokeWidth=0.8;lucidId=CTXyEhZ~NJwq;" vertex="1" parent="1">
          <mxGeometry x="1426" y="1880" width="179" height="45" as="geometry" />
        </mxCell>
        <mxCell id="kMKTAfwcoq6TKuCzOSCz-240" value="repayment_date" style="html=1;overflow=block;blockSpacing=1;whiteSpace=wrap;ellipse;fontSize=16.7;fontColor=#3a414a;spacing=3.8;strokeColor=#3a414a;strokeOpacity=100;fillOpacity=100;rounded=1;absoluteArcSize=1;arcSize=9;fillColor=#ffffff;strokeWidth=0.8;lucidId=CTXyEhZ~NJwq;" vertex="1" parent="1">
          <mxGeometry x="1400" y="1995" width="135" height="45" as="geometry" />
        </mxCell>
        <mxCell id="kMKTAfwcoq6TKuCzOSCz-241" value="" style="endArrow=classic;html=1;rounded=0;" edge="1" parent="1" target="kMKTAfwcoq6TKuCzOSCz-240" source="kMKTAfwcoq6TKuCzOSCz-227">
          <mxGeometry width="50" height="50" relative="1" as="geometry">
            <mxPoint x="1415" y="1958.5" as="sourcePoint" />
            <mxPoint x="1525" y="1930" as="targetPoint" />
          </mxGeometry>
        </mxCell>
        <mxCell id="kMKTAfwcoq6TKuCzOSCz-254" value="wallet_id" style="html=1;overflow=block;blockSpacing=1;whiteSpace=wrap;ellipse;fontSize=16.7;fontColor=#3a414a;fontStyle=4;spacing=3.8;strokeColor=#3a414a;strokeOpacity=100;fillOpacity=100;rounded=1;absoluteArcSize=1;arcSize=9;fillColor=#ffffff;strokeWidth=0.8;lucidId=CTXyAcADFPme;" vertex="1" parent="1">
          <mxGeometry x="977" y="1080" width="135" height="45" as="geometry" />
        </mxCell>
        <mxCell id="kMKTAfwcoq6TKuCzOSCz-255" value="user_id" style="html=1;overflow=block;blockSpacing=1;whiteSpace=wrap;ellipse;fontSize=16.7;fontColor=#3a414a;spacing=3.8;strokeColor=#3a414a;strokeOpacity=100;fillOpacity=100;rounded=1;absoluteArcSize=1;arcSize=9;fillColor=#ffffff;strokeWidth=0.8;lucidId=CTXyEhZ~NJwq;" vertex="1" parent="1">
          <mxGeometry x="961" y="1275" width="135" height="45" as="geometry" />
        </mxCell>
        <mxCell id="kMKTAfwcoq6TKuCzOSCz-256" value="wallet" style="rounded=0;whiteSpace=wrap;html=1;" vertex="1" parent="1">
          <mxGeometry x="1247" y="1193.5" width="120" height="60" as="geometry" />
        </mxCell>
        <mxCell id="kMKTAfwcoq6TKuCzOSCz-257" value="" style="endArrow=classic;html=1;rounded=0;entryX=1;entryY=0.5;entryDx=0;entryDy=0;" edge="1" parent="1" source="kMKTAfwcoq6TKuCzOSCz-256" target="kMKTAfwcoq6TKuCzOSCz-255">
          <mxGeometry width="50" height="50" relative="1" as="geometry">
            <mxPoint x="1036" y="1260" as="sourcePoint" />
            <mxPoint x="1086" y="1210" as="targetPoint" />
          </mxGeometry>
        </mxCell>
        <mxCell id="kMKTAfwcoq6TKuCzOSCz-258" value="" style="endArrow=classic;html=1;rounded=0;exitX=0.361;exitY=0.019;exitDx=0;exitDy=0;exitPerimeter=0;" edge="1" parent="1" source="kMKTAfwcoq6TKuCzOSCz-256" target="kMKTAfwcoq6TKuCzOSCz-254">
          <mxGeometry width="50" height="50" relative="1" as="geometry">
            <mxPoint x="1106" y="1290" as="sourcePoint" />
            <mxPoint x="1156" y="1240" as="targetPoint" />
          </mxGeometry>
        </mxCell>
        <mxCell id="kMKTAfwcoq6TKuCzOSCz-259" value="balance" style="html=1;overflow=block;blockSpacing=1;whiteSpace=wrap;ellipse;fontSize=16.7;fontColor=#3a414a;spacing=3.8;strokeColor=#3a414a;strokeOpacity=100;fillOpacity=100;rounded=1;absoluteArcSize=1;arcSize=9;fillColor=#ffffff;strokeWidth=0.8;lucidId=CTXyEhZ~NJwq;" vertex="1" parent="1">
          <mxGeometry x="1163.5" y="1335" width="135" height="45" as="geometry" />
        </mxCell>
        <mxCell id="kMKTAfwcoq6TKuCzOSCz-260" value="" style="endArrow=classic;html=1;rounded=0;entryX=0.5;entryY=0;entryDx=0;entryDy=0;exitX=0.25;exitY=1;exitDx=0;exitDy=0;" edge="1" parent="1" source="kMKTAfwcoq6TKuCzOSCz-256" target="kMKTAfwcoq6TKuCzOSCz-259">
          <mxGeometry width="50" height="50" relative="1" as="geometry">
            <mxPoint x="1448.5" y="1305" as="sourcePoint" />
            <mxPoint x="1288.5" y="1270" as="targetPoint" />
          </mxGeometry>
        </mxCell>
        <mxCell id="kMKTAfwcoq6TKuCzOSCz-261" value="log_id" style="html=1;overflow=block;blockSpacing=1;whiteSpace=wrap;ellipse;fontSize=16.7;fontColor=#3a414a;fontStyle=4;spacing=3.8;strokeColor=#3a414a;strokeOpacity=100;fillOpacity=100;rounded=1;absoluteArcSize=1;arcSize=9;fillColor=#ffffff;strokeWidth=0.8;lucidId=CTXyAcADFPme;" vertex="1" parent="1">
          <mxGeometry x="1281" y="480" width="135" height="45" as="geometry" />
        </mxCell>
        <mxCell id="kMKTAfwcoq6TKuCzOSCz-262" value="user_id" style="html=1;overflow=block;blockSpacing=1;whiteSpace=wrap;ellipse;fontSize=16.7;fontColor=#3a414a;spacing=3.8;strokeColor=#3a414a;strokeOpacity=100;fillOpacity=100;rounded=1;absoluteArcSize=1;arcSize=9;fillColor=#ffffff;strokeWidth=0.8;lucidId=CTXyEhZ~NJwq;" vertex="1" parent="1">
          <mxGeometry x="1265" y="675" width="135" height="45" as="geometry" />
        </mxCell>
        <mxCell id="kMKTAfwcoq6TKuCzOSCz-263" value="actions_log" style="rounded=0;whiteSpace=wrap;html=1;" vertex="1" parent="1">
          <mxGeometry x="1550" y="593.5" width="120" height="60" as="geometry" />
        </mxCell>
        <mxCell id="kMKTAfwcoq6TKuCzOSCz-264" value="" style="endArrow=classic;html=1;rounded=0;entryX=1;entryY=0.5;entryDx=0;entryDy=0;" edge="1" parent="1" source="kMKTAfwcoq6TKuCzOSCz-263" target="kMKTAfwcoq6TKuCzOSCz-262">
          <mxGeometry width="50" height="50" relative="1" as="geometry">
            <mxPoint x="1340" y="660" as="sourcePoint" />
            <mxPoint x="1390" y="610" as="targetPoint" />
          </mxGeometry>
        </mxCell>
        <mxCell id="kMKTAfwcoq6TKuCzOSCz-265" value="" style="endArrow=classic;html=1;rounded=0;exitX=0.361;exitY=0.019;exitDx=0;exitDy=0;exitPerimeter=0;" edge="1" parent="1" source="kMKTAfwcoq6TKuCzOSCz-263" target="kMKTAfwcoq6TKuCzOSCz-261">
          <mxGeometry width="50" height="50" relative="1" as="geometry">
            <mxPoint x="1410" y="690" as="sourcePoint" />
            <mxPoint x="1460" y="640" as="targetPoint" />
          </mxGeometry>
        </mxCell>
        <mxCell id="kMKTAfwcoq6TKuCzOSCz-266" value="action_type" style="html=1;overflow=block;blockSpacing=1;whiteSpace=wrap;ellipse;fontSize=16.7;fontColor=#3a414a;spacing=3.8;strokeColor=#3a414a;strokeOpacity=100;fillOpacity=100;rounded=1;absoluteArcSize=1;arcSize=9;fillColor=#ffffff;strokeWidth=0.8;lucidId=CTXyEhZ~NJwq;" vertex="1" parent="1">
          <mxGeometry x="1467.5" y="735" width="135" height="45" as="geometry" />
        </mxCell>
        <mxCell id="kMKTAfwcoq6TKuCzOSCz-267" value="" style="endArrow=classic;html=1;rounded=0;entryX=0.5;entryY=0;entryDx=0;entryDy=0;exitX=0.25;exitY=1;exitDx=0;exitDy=0;" edge="1" parent="1" source="kMKTAfwcoq6TKuCzOSCz-263" target="kMKTAfwcoq6TKuCzOSCz-266">
          <mxGeometry width="50" height="50" relative="1" as="geometry">
            <mxPoint x="1752.5" y="705" as="sourcePoint" />
            <mxPoint x="1592.5" y="670" as="targetPoint" />
          </mxGeometry>
        </mxCell>
        <mxCell id="kMKTAfwcoq6TKuCzOSCz-268" value="action_timestamp" style="html=1;overflow=block;blockSpacing=1;whiteSpace=wrap;ellipse;fontSize=16.7;fontColor=#3a414a;spacing=3.8;strokeColor=#3a414a;strokeOpacity=100;fillOpacity=100;rounded=1;absoluteArcSize=1;arcSize=9;fillColor=#ffffff;strokeWidth=0.8;lucidId=CTXyEhZ~NJwq;" vertex="1" parent="1">
          <mxGeometry x="1710" y="710" width="170" height="46" as="geometry" />
        </mxCell>
        <mxCell id="kMKTAfwcoq6TKuCzOSCz-269" value="" style="endArrow=classic;html=1;rounded=0;entryX=0.5;entryY=0;entryDx=0;entryDy=0;exitX=0.967;exitY=0.875;exitDx=0;exitDy=0;exitPerimeter=0;" edge="1" parent="1" target="kMKTAfwcoq6TKuCzOSCz-268" source="kMKTAfwcoq6TKuCzOSCz-263">
          <mxGeometry width="50" height="50" relative="1" as="geometry">
            <mxPoint x="1822.5" y="630" as="sourcePoint" />
            <mxPoint x="1835" y="646" as="targetPoint" />
          </mxGeometry>
        </mxCell>
        <mxCell id="kMKTAfwcoq6TKuCzOSCz-270" value="disscussions_id" style="html=1;overflow=block;blockSpacing=1;whiteSpace=wrap;ellipse;fontSize=16.7;fontColor=#3a414a;fontStyle=4;spacing=3.8;strokeColor=#3a414a;strokeOpacity=100;fillOpacity=100;rounded=1;absoluteArcSize=1;arcSize=9;fillColor=#ffffff;strokeWidth=0.8;lucidId=CTXyAcADFPme;" vertex="1" parent="1">
          <mxGeometry x="-720" y="1490" width="135" height="45" as="geometry" />
        </mxCell>
        <mxCell id="kMKTAfwcoq6TKuCzOSCz-271" value="created_by" style="html=1;overflow=block;blockSpacing=1;whiteSpace=wrap;ellipse;fontSize=16.7;fontColor=#3a414a;spacing=3.8;strokeColor=#3a414a;strokeOpacity=100;fillOpacity=100;rounded=1;absoluteArcSize=1;arcSize=9;fillColor=#ffffff;strokeWidth=0.8;lucidId=CTXyEhZ~NJwq;" vertex="1" parent="1">
          <mxGeometry x="-897.5" y="1705" width="135" height="45" as="geometry" />
        </mxCell>
        <mxCell id="kMKTAfwcoq6TKuCzOSCz-272" value="discussions" style="rounded=0;whiteSpace=wrap;html=1;" vertex="1" parent="1">
          <mxGeometry x="-612.5" y="1623.5" width="120" height="60" as="geometry" />
        </mxCell>
        <mxCell id="kMKTAfwcoq6TKuCzOSCz-273" value="" style="endArrow=classic;html=1;rounded=0;entryX=1;entryY=0.5;entryDx=0;entryDy=0;" edge="1" parent="1" source="kMKTAfwcoq6TKuCzOSCz-272" target="kMKTAfwcoq6TKuCzOSCz-271">
          <mxGeometry width="50" height="50" relative="1" as="geometry">
            <mxPoint x="-822.5" y="1690" as="sourcePoint" />
            <mxPoint x="-772.5" y="1640" as="targetPoint" />
          </mxGeometry>
        </mxCell>
        <mxCell id="kMKTAfwcoq6TKuCzOSCz-274" value="" style="endArrow=classic;html=1;rounded=0;exitX=0.361;exitY=0.019;exitDx=0;exitDy=0;exitPerimeter=0;" edge="1" parent="1" source="kMKTAfwcoq6TKuCzOSCz-272" target="kMKTAfwcoq6TKuCzOSCz-270">
          <mxGeometry width="50" height="50" relative="1" as="geometry">
            <mxPoint x="-752.5" y="1720" as="sourcePoint" />
            <mxPoint x="-702.5" y="1670" as="targetPoint" />
          </mxGeometry>
        </mxCell>
        <mxCell id="kMKTAfwcoq6TKuCzOSCz-275" value="title" style="html=1;overflow=block;blockSpacing=1;whiteSpace=wrap;ellipse;fontSize=16.7;fontColor=#3a414a;spacing=3.8;strokeColor=#3a414a;strokeOpacity=100;fillOpacity=100;rounded=1;absoluteArcSize=1;arcSize=9;fillColor=#ffffff;strokeWidth=0.8;lucidId=CTXyEhZ~NJwq;" vertex="1" parent="1">
          <mxGeometry x="-695" y="1765" width="135" height="45" as="geometry" />
        </mxCell>
        <mxCell id="kMKTAfwcoq6TKuCzOSCz-276" value="" style="endArrow=classic;html=1;rounded=0;entryX=0.5;entryY=0;entryDx=0;entryDy=0;exitX=0.25;exitY=1;exitDx=0;exitDy=0;" edge="1" parent="1" source="kMKTAfwcoq6TKuCzOSCz-272" target="kMKTAfwcoq6TKuCzOSCz-275">
          <mxGeometry width="50" height="50" relative="1" as="geometry">
            <mxPoint x="-410" y="1735" as="sourcePoint" />
            <mxPoint x="-570" y="1700" as="targetPoint" />
          </mxGeometry>
        </mxCell>
        <mxCell id="kMKTAfwcoq6TKuCzOSCz-277" value="description" style="html=1;overflow=block;blockSpacing=1;whiteSpace=wrap;ellipse;fontSize=16.7;fontColor=#3a414a;spacing=3.8;strokeColor=#3a414a;strokeOpacity=100;fillOpacity=100;rounded=1;absoluteArcSize=1;arcSize=9;fillColor=#ffffff;strokeWidth=0.8;lucidId=CTXyEhZ~NJwq;" vertex="1" parent="1">
          <mxGeometry x="-452.5" y="1740" width="170" height="46" as="geometry" />
        </mxCell>
        <mxCell id="kMKTAfwcoq6TKuCzOSCz-278" value="" style="endArrow=classic;html=1;rounded=0;entryX=0.5;entryY=0;entryDx=0;entryDy=0;exitX=0.967;exitY=0.875;exitDx=0;exitDy=0;exitPerimeter=0;" edge="1" parent="1" source="kMKTAfwcoq6TKuCzOSCz-272" target="kMKTAfwcoq6TKuCzOSCz-277">
          <mxGeometry width="50" height="50" relative="1" as="geometry">
            <mxPoint x="-340" y="1660" as="sourcePoint" />
            <mxPoint x="-327.5" y="1676" as="targetPoint" />
          </mxGeometry>
        </mxCell>
        <mxCell id="kMKTAfwcoq6TKuCzOSCz-279" value="created_date" style="html=1;overflow=block;blockSpacing=1;whiteSpace=wrap;ellipse;fontSize=16.7;fontColor=#3a414a;spacing=3.8;strokeColor=#3a414a;strokeOpacity=100;fillOpacity=100;rounded=1;absoluteArcSize=1;arcSize=9;fillColor=#ffffff;strokeWidth=0.8;lucidId=CTXyEhZ~NJwq;" vertex="1" parent="1">
          <mxGeometry x="-442.5" y="1632" width="170" height="46" as="geometry" />
        </mxCell>
        <mxCell id="kMKTAfwcoq6TKuCzOSCz-280" value="" style="endArrow=classic;html=1;rounded=0;entryX=0;entryY=0.5;entryDx=0;entryDy=0;exitX=1;exitY=0.25;exitDx=0;exitDy=0;" edge="1" parent="1" target="kMKTAfwcoq6TKuCzOSCz-279" source="kMKTAfwcoq6TKuCzOSCz-272">
          <mxGeometry width="50" height="50" relative="1" as="geometry">
            <mxPoint x="-486.5" y="1568" as="sourcePoint" />
            <mxPoint x="-317.5" y="1568" as="targetPoint" />
          </mxGeometry>
        </mxCell>
        <mxCell id="kMKTAfwcoq6TKuCzOSCz-284" value="tagged" style="rhombus;whiteSpace=wrap;html=1;" vertex="1" parent="1">
          <mxGeometry x="-570.5" y="1379" width="80" height="80" as="geometry" />
        </mxCell>
        <mxCell id="kMKTAfwcoq6TKuCzOSCz-285" value="" style="endArrow=none;html=1;rounded=0;exitX=0.654;exitY=0.019;exitDx=0;exitDy=0;exitPerimeter=0;" edge="1" parent="1" target="kMKTAfwcoq6TKuCzOSCz-284" source="kMKTAfwcoq6TKuCzOSCz-272">
          <mxGeometry width="50" height="50" relative="1" as="geometry">
            <mxPoint x="-621.5" y="1489" as="sourcePoint" />
            <mxPoint x="-550.5" y="1449" as="targetPoint" />
          </mxGeometry>
        </mxCell>
        <mxCell id="kMKTAfwcoq6TKuCzOSCz-286" value="" style="endArrow=none;html=1;rounded=0;entryX=0.667;entryY=1.044;entryDx=0;entryDy=0;entryPerimeter=0;" edge="1" parent="1" source="kMKTAfwcoq6TKuCzOSCz-284" target="kMKTAfwcoq6TKuCzOSCz-142">
          <mxGeometry width="50" height="50" relative="1" as="geometry">
            <mxPoint x="-630.5" y="1519" as="sourcePoint" />
            <mxPoint x="-442.5" y="1300" as="targetPoint" />
          </mxGeometry>
        </mxCell>
        <mxCell id="kMKTAfwcoq6TKuCzOSCz-287" value="" style="endArrow=classic;html=1;rounded=0;entryX=0;entryY=0.5;entryDx=0;entryDy=0;" edge="1" parent="1" target="kMKTAfwcoq6TKuCzOSCz-288" source="kMKTAfwcoq6TKuCzOSCz-284">
          <mxGeometry width="50" height="50" relative="1" as="geometry">
            <mxPoint x="-492.5" y="1417" as="sourcePoint" />
            <mxPoint x="-427.5" y="1444" as="targetPoint" />
          </mxGeometry>
        </mxCell>
        <mxCell id="kMKTAfwcoq6TKuCzOSCz-288" value="discussion_tags" style="html=1;overflow=block;blockSpacing=1;whiteSpace=wrap;ellipse;fontSize=16.7;fontColor=#3a414a;spacing=3.8;strokeColor=#3a414a;strokeOpacity=100;fillOpacity=100;rounded=1;absoluteArcSize=1;arcSize=9;fillColor=#ffffff;strokeWidth=0.8;lucidId=CTXynaInC8LI;" vertex="1" parent="1">
          <mxGeometry x="-417.5" y="1434" width="135" height="46" as="geometry" />
        </mxCell>
        <mxCell id="kMKTAfwcoq6TKuCzOSCz-289" value="comment_id" style="html=1;overflow=block;blockSpacing=1;whiteSpace=wrap;ellipse;fontSize=16.7;fontColor=#3a414a;fontStyle=4;spacing=3.8;strokeColor=#3a414a;strokeOpacity=100;fillOpacity=100;rounded=1;absoluteArcSize=1;arcSize=9;fillColor=#ffffff;strokeWidth=0.8;lucidId=CTXyAcADFPme;" vertex="1" parent="1">
          <mxGeometry x="-721" y="1840" width="135" height="45" as="geometry" />
        </mxCell>
        <mxCell id="kMKTAfwcoq6TKuCzOSCz-290" value="user_id" style="html=1;overflow=block;blockSpacing=1;whiteSpace=wrap;ellipse;fontSize=16.7;fontColor=#3a414a;spacing=3.8;strokeColor=#3a414a;strokeOpacity=100;fillOpacity=100;rounded=1;absoluteArcSize=1;arcSize=9;fillColor=#ffffff;strokeWidth=0.8;lucidId=CTXyEhZ~NJwq;" vertex="1" parent="1">
          <mxGeometry x="-737" y="2035" width="135" height="45" as="geometry" />
        </mxCell>
        <mxCell id="kMKTAfwcoq6TKuCzOSCz-291" value="discussion_comments" style="rounded=0;whiteSpace=wrap;html=1;" vertex="1" parent="1">
          <mxGeometry x="-452" y="1953.5" width="120" height="60" as="geometry" />
        </mxCell>
        <mxCell id="kMKTAfwcoq6TKuCzOSCz-292" value="" style="endArrow=classic;html=1;rounded=0;entryX=1;entryY=0.5;entryDx=0;entryDy=0;" edge="1" parent="1" source="kMKTAfwcoq6TKuCzOSCz-291" target="kMKTAfwcoq6TKuCzOSCz-290">
          <mxGeometry width="50" height="50" relative="1" as="geometry">
            <mxPoint x="-662" y="2020" as="sourcePoint" />
            <mxPoint x="-612" y="1970" as="targetPoint" />
          </mxGeometry>
        </mxCell>
        <mxCell id="kMKTAfwcoq6TKuCzOSCz-293" value="" style="endArrow=classic;html=1;rounded=0;exitX=0.361;exitY=0.019;exitDx=0;exitDy=0;exitPerimeter=0;" edge="1" parent="1" source="kMKTAfwcoq6TKuCzOSCz-291" target="kMKTAfwcoq6TKuCzOSCz-289">
          <mxGeometry width="50" height="50" relative="1" as="geometry">
            <mxPoint x="-592" y="2050" as="sourcePoint" />
            <mxPoint x="-542" y="2000" as="targetPoint" />
          </mxGeometry>
        </mxCell>
        <mxCell id="kMKTAfwcoq6TKuCzOSCz-294" value="document_id" style="html=1;overflow=block;blockSpacing=1;whiteSpace=wrap;ellipse;fontSize=16.7;fontColor=#3a414a;spacing=3.8;strokeColor=#3a414a;strokeOpacity=100;fillOpacity=100;rounded=1;absoluteArcSize=1;arcSize=9;fillColor=#ffffff;strokeWidth=0.8;lucidId=CTXyEhZ~NJwq;" vertex="1" parent="1">
          <mxGeometry x="-534.5" y="2095" width="135" height="45" as="geometry" />
        </mxCell>
        <mxCell id="kMKTAfwcoq6TKuCzOSCz-295" value="" style="endArrow=classic;html=1;rounded=0;entryX=0.5;entryY=0;entryDx=0;entryDy=0;exitX=0.25;exitY=1;exitDx=0;exitDy=0;" edge="1" parent="1" source="kMKTAfwcoq6TKuCzOSCz-291" target="kMKTAfwcoq6TKuCzOSCz-294">
          <mxGeometry width="50" height="50" relative="1" as="geometry">
            <mxPoint x="-249.5" y="2065" as="sourcePoint" />
            <mxPoint x="-409.5" y="2030" as="targetPoint" />
          </mxGeometry>
        </mxCell>
        <mxCell id="kMKTAfwcoq6TKuCzOSCz-296" value="comment_text" style="html=1;overflow=block;blockSpacing=1;whiteSpace=wrap;ellipse;fontSize=16.7;fontColor=#3a414a;spacing=3.8;strokeColor=#3a414a;strokeOpacity=100;fillOpacity=100;rounded=1;absoluteArcSize=1;arcSize=9;fillColor=#ffffff;strokeWidth=0.8;lucidId=CTXyEhZ~NJwq;" vertex="1" parent="1">
          <mxGeometry x="-292" y="2070" width="170" height="46" as="geometry" />
        </mxCell>
        <mxCell id="kMKTAfwcoq6TKuCzOSCz-297" value="" style="endArrow=classic;html=1;rounded=0;entryX=0.5;entryY=0;entryDx=0;entryDy=0;exitX=0.967;exitY=0.875;exitDx=0;exitDy=0;exitPerimeter=0;" edge="1" parent="1" source="kMKTAfwcoq6TKuCzOSCz-291" target="kMKTAfwcoq6TKuCzOSCz-296">
          <mxGeometry width="50" height="50" relative="1" as="geometry">
            <mxPoint x="-179.5" y="1990" as="sourcePoint" />
            <mxPoint x="-167" y="2006" as="targetPoint" />
          </mxGeometry>
        </mxCell>
        <mxCell id="kMKTAfwcoq6TKuCzOSCz-298" value="comment_date" style="html=1;overflow=block;blockSpacing=1;whiteSpace=wrap;ellipse;fontSize=16.7;fontColor=#3a414a;spacing=3.8;strokeColor=#3a414a;strokeOpacity=100;fillOpacity=100;rounded=1;absoluteArcSize=1;arcSize=9;fillColor=#ffffff;strokeWidth=0.8;lucidId=CTXyEhZ~NJwq;" vertex="1" parent="1">
          <mxGeometry x="-282" y="1962" width="170" height="46" as="geometry" />
        </mxCell>
        <mxCell id="kMKTAfwcoq6TKuCzOSCz-299" value="" style="endArrow=classic;html=1;rounded=0;entryX=0;entryY=0.5;entryDx=0;entryDy=0;exitX=1;exitY=0.25;exitDx=0;exitDy=0;" edge="1" parent="1" source="kMKTAfwcoq6TKuCzOSCz-291" target="kMKTAfwcoq6TKuCzOSCz-298">
          <mxGeometry width="50" height="50" relative="1" as="geometry">
            <mxPoint x="-326" y="1898" as="sourcePoint" />
            <mxPoint x="-157" y="1898" as="targetPoint" />
          </mxGeometry>
        </mxCell>
        <mxCell id="kMKTAfwcoq6TKuCzOSCz-300" value="notification_id" style="html=1;overflow=block;blockSpacing=1;whiteSpace=wrap;ellipse;fontSize=16.7;fontColor=#3a414a;fontStyle=4;spacing=3.8;strokeColor=#3a414a;strokeOpacity=100;fillOpacity=100;rounded=1;absoluteArcSize=1;arcSize=9;fillColor=#ffffff;strokeWidth=0.8;lucidId=CTXyAcADFPme;" vertex="1" parent="1">
          <mxGeometry x="-544" y="-390" width="135" height="45" as="geometry" />
        </mxCell>
        <mxCell id="kMKTAfwcoq6TKuCzOSCz-301" value="user_id" style="html=1;overflow=block;blockSpacing=1;whiteSpace=wrap;ellipse;fontSize=16.7;fontColor=#3a414a;spacing=3.8;strokeColor=#3a414a;strokeOpacity=100;fillOpacity=100;rounded=1;absoluteArcSize=1;arcSize=9;fillColor=#ffffff;strokeWidth=0.8;lucidId=CTXyEhZ~NJwq;" vertex="1" parent="1">
          <mxGeometry x="-560" y="-195" width="135" height="45" as="geometry" />
        </mxCell>
        <mxCell id="kMKTAfwcoq6TKuCzOSCz-302" value="notifications" style="rounded=0;whiteSpace=wrap;html=1;" vertex="1" parent="1">
          <mxGeometry x="-275" y="-276.5" width="120" height="60" as="geometry" />
        </mxCell>
        <mxCell id="kMKTAfwcoq6TKuCzOSCz-303" value="" style="endArrow=classic;html=1;rounded=0;entryX=1;entryY=0.5;entryDx=0;entryDy=0;" edge="1" parent="1" source="kMKTAfwcoq6TKuCzOSCz-302" target="kMKTAfwcoq6TKuCzOSCz-301">
          <mxGeometry width="50" height="50" relative="1" as="geometry">
            <mxPoint x="-485" y="-210" as="sourcePoint" />
            <mxPoint x="-435" y="-260" as="targetPoint" />
          </mxGeometry>
        </mxCell>
        <mxCell id="kMKTAfwcoq6TKuCzOSCz-304" value="" style="endArrow=classic;html=1;rounded=0;exitX=0.361;exitY=0.019;exitDx=0;exitDy=0;exitPerimeter=0;" edge="1" parent="1" source="kMKTAfwcoq6TKuCzOSCz-302" target="kMKTAfwcoq6TKuCzOSCz-300">
          <mxGeometry width="50" height="50" relative="1" as="geometry">
            <mxPoint x="-415" y="-180" as="sourcePoint" />
            <mxPoint x="-365" y="-230" as="targetPoint" />
          </mxGeometry>
        </mxCell>
        <mxCell id="kMKTAfwcoq6TKuCzOSCz-305" value="message" style="html=1;overflow=block;blockSpacing=1;whiteSpace=wrap;ellipse;fontSize=16.7;fontColor=#3a414a;spacing=3.8;strokeColor=#3a414a;strokeOpacity=100;fillOpacity=100;rounded=1;absoluteArcSize=1;arcSize=9;fillColor=#ffffff;strokeWidth=0.8;lucidId=CTXyEhZ~NJwq;" vertex="1" parent="1">
          <mxGeometry x="-534.5" y="-130" width="135" height="45" as="geometry" />
        </mxCell>
        <mxCell id="kMKTAfwcoq6TKuCzOSCz-306" value="" style="endArrow=classic;html=1;rounded=0;entryX=0.5;entryY=0;entryDx=0;entryDy=0;exitX=0.25;exitY=1;exitDx=0;exitDy=0;" edge="1" parent="1" source="kMKTAfwcoq6TKuCzOSCz-302" target="kMKTAfwcoq6TKuCzOSCz-305">
          <mxGeometry width="50" height="50" relative="1" as="geometry">
            <mxPoint x="-72.5" y="-165" as="sourcePoint" />
            <mxPoint x="-232.5" y="-200" as="targetPoint" />
          </mxGeometry>
        </mxCell>
        <mxCell id="kMKTAfwcoq6TKuCzOSCz-307" value="created_date" style="html=1;overflow=block;blockSpacing=1;whiteSpace=wrap;ellipse;fontSize=16.7;fontColor=#3a414a;spacing=3.8;strokeColor=#3a414a;strokeOpacity=100;fillOpacity=100;rounded=1;absoluteArcSize=1;arcSize=9;fillColor=#ffffff;strokeWidth=0.8;lucidId=CTXyEhZ~NJwq;" vertex="1" parent="1">
          <mxGeometry x="-70" y="-196" width="170" height="46" as="geometry" />
        </mxCell>
        <mxCell id="kMKTAfwcoq6TKuCzOSCz-308" value="" style="endArrow=classic;html=1;rounded=0;entryX=0.5;entryY=0;entryDx=0;entryDy=0;exitX=0.967;exitY=0.875;exitDx=0;exitDy=0;exitPerimeter=0;" edge="1" parent="1" source="kMKTAfwcoq6TKuCzOSCz-302" target="kMKTAfwcoq6TKuCzOSCz-307">
          <mxGeometry width="50" height="50" relative="1" as="geometry">
            <mxPoint x="-2.5" y="-240" as="sourcePoint" />
            <mxPoint x="10" y="-224" as="targetPoint" />
          </mxGeometry>
        </mxCell>
        <mxCell id="kMKTAfwcoq6TKuCzOSCz-309" value="is_read" style="html=1;overflow=block;blockSpacing=1;whiteSpace=wrap;ellipse;fontSize=16.7;fontColor=#3a414a;spacing=3.8;strokeColor=#3a414a;strokeOpacity=100;fillOpacity=100;rounded=1;absoluteArcSize=1;arcSize=9;fillColor=#ffffff;strokeWidth=0.8;lucidId=CTXyEhZ~NJwq;" vertex="1" parent="1">
          <mxGeometry x="-105" y="-268" width="170" height="46" as="geometry" />
        </mxCell>
        <mxCell id="kMKTAfwcoq6TKuCzOSCz-310" value="" style="endArrow=classic;html=1;rounded=0;entryX=0;entryY=0.5;entryDx=0;entryDy=0;exitX=1;exitY=0.25;exitDx=0;exitDy=0;" edge="1" parent="1" source="kMKTAfwcoq6TKuCzOSCz-302" target="kMKTAfwcoq6TKuCzOSCz-309">
          <mxGeometry width="50" height="50" relative="1" as="geometry">
            <mxPoint x="-149" y="-332" as="sourcePoint" />
            <mxPoint x="20" y="-332" as="targetPoint" />
          </mxGeometry>
        </mxCell>
        <mxCell id="kMKTAfwcoq6TKuCzOSCz-313" value="notified" style="rhombus;whiteSpace=wrap;html=1;" vertex="1" parent="1">
          <mxGeometry x="-275" y="-80" width="80" height="80" as="geometry" />
        </mxCell>
        <mxCell id="kMKTAfwcoq6TKuCzOSCz-314" value="" style="endArrow=none;html=1;rounded=0;entryX=0.063;entryY=0.625;entryDx=0;entryDy=0;entryPerimeter=0;exitX=0.5;exitY=0;exitDx=0;exitDy=0;" edge="1" parent="1" source="kMKTAfwcoq6TKuCzOSCz-123" target="kMKTAfwcoq6TKuCzOSCz-313">
          <mxGeometry width="50" height="50" relative="1" as="geometry">
            <mxPoint x="-480" y="110" as="sourcePoint" />
            <mxPoint x="-430" y="60" as="targetPoint" />
          </mxGeometry>
        </mxCell>
        <mxCell id="kMKTAfwcoq6TKuCzOSCz-315" value="" style="endArrow=none;html=1;rounded=0;entryX=0.5;entryY=1;entryDx=0;entryDy=0;exitX=0.5;exitY=0;exitDx=0;exitDy=0;" edge="1" parent="1" source="kMKTAfwcoq6TKuCzOSCz-313" target="kMKTAfwcoq6TKuCzOSCz-302">
          <mxGeometry width="50" height="50" relative="1" as="geometry">
            <mxPoint x="-480" y="-70" as="sourcePoint" />
            <mxPoint x="-430" y="-120" as="targetPoint" />
          </mxGeometry>
        </mxCell>
        <mxCell id="kMKTAfwcoq6TKuCzOSCz-318" value="uploaded" style="rhombus;whiteSpace=wrap;html=1;" vertex="1" parent="1">
          <mxGeometry x="-450" y="625" width="80" height="80" as="geometry" />
        </mxCell>
        <mxCell id="kMKTAfwcoq6TKuCzOSCz-319" value="" style="endArrow=none;html=1;rounded=0;entryX=0.5;entryY=1;entryDx=0;entryDy=0;exitX=0.5;exitY=0;exitDx=0;exitDy=0;" edge="1" parent="1" source="kMKTAfwcoq6TKuCzOSCz-129" target="kMKTAfwcoq6TKuCzOSCz-318">
          <mxGeometry width="50" height="50" relative="1" as="geometry">
            <mxPoint x="-480" y="790" as="sourcePoint" />
            <mxPoint x="-430" y="740" as="targetPoint" />
          </mxGeometry>
        </mxCell>
        <mxCell id="kMKTAfwcoq6TKuCzOSCz-320" value="" style="endArrow=none;html=1;rounded=0;entryX=0.5;entryY=0;entryDx=0;entryDy=0;exitX=0.392;exitY=0.741;exitDx=0;exitDy=0;exitPerimeter=0;" edge="1" parent="1" source="kMKTAfwcoq6TKuCzOSCz-123" target="kMKTAfwcoq6TKuCzOSCz-318">
          <mxGeometry width="50" height="50" relative="1" as="geometry">
            <mxPoint x="-320" y="964" as="sourcePoint" />
            <mxPoint x="-400" y="715" as="targetPoint" />
          </mxGeometry>
        </mxCell>
        <mxCell id="kMKTAfwcoq6TKuCzOSCz-321" value="part_of" style="rhombus;whiteSpace=wrap;html=1;" vertex="1" parent="1">
          <mxGeometry x="-180" y="657.5" width="80" height="80" as="geometry" />
        </mxCell>
        <mxCell id="kMKTAfwcoq6TKuCzOSCz-322" value="" style="endArrow=none;html=1;rounded=0;entryX=0.467;entryY=0.915;entryDx=0;entryDy=0;entryPerimeter=0;" edge="1" parent="1" source="kMKTAfwcoq6TKuCzOSCz-129" target="kMKTAfwcoq6TKuCzOSCz-321">
          <mxGeometry width="50" height="50" relative="1" as="geometry">
            <mxPoint x="-480" y="650" as="sourcePoint" />
            <mxPoint x="-430" y="600" as="targetPoint" />
          </mxGeometry>
        </mxCell>
        <mxCell id="kMKTAfwcoq6TKuCzOSCz-323" value="" style="endArrow=none;html=1;rounded=0;entryX=0.25;entryY=1;entryDx=0;entryDy=0;exitX=0.5;exitY=0;exitDx=0;exitDy=0;" edge="1" parent="1" source="kMKTAfwcoq6TKuCzOSCz-321" target="kMKTAfwcoq6TKuCzOSCz-154">
          <mxGeometry width="50" height="50" relative="1" as="geometry">
            <mxPoint x="-298" y="964" as="sourcePoint" />
            <mxPoint x="-133" y="741" as="targetPoint" />
          </mxGeometry>
        </mxCell>
        <mxCell id="kMKTAfwcoq6TKuCzOSCz-325" value="started" style="rhombus;whiteSpace=wrap;html=1;" vertex="1" parent="1">
          <mxGeometry x="-1210" y="1370" width="80" height="80" as="geometry" />
        </mxCell>
        <mxCell id="kMKTAfwcoq6TKuCzOSCz-326" value="" style="endArrow=none;html=1;rounded=0;entryX=-0.012;entryY=0.397;entryDx=0;entryDy=0;entryPerimeter=0;" edge="1" parent="1" source="kMKTAfwcoq6TKuCzOSCz-325" target="kMKTAfwcoq6TKuCzOSCz-272">
          <mxGeometry width="50" height="50" relative="1" as="geometry">
            <mxPoint x="-840" y="1500" as="sourcePoint" />
            <mxPoint x="-790" y="1450" as="targetPoint" />
          </mxGeometry>
        </mxCell>
        <mxCell id="kMKTAfwcoq6TKuCzOSCz-327" value="" style="endArrow=none;html=1;rounded=0;exitX=0.5;exitY=0;exitDx=0;exitDy=0;entryX=0.25;entryY=1;entryDx=0;entryDy=0;" edge="1" parent="1" source="kMKTAfwcoq6TKuCzOSCz-325" target="kMKTAfwcoq6TKuCzOSCz-123">
          <mxGeometry width="50" height="50" relative="1" as="geometry">
            <mxPoint x="-840" y="1500" as="sourcePoint" />
            <mxPoint x="-1020" y="1260" as="targetPoint" />
          </mxGeometry>
        </mxCell>
        <mxCell id="kMKTAfwcoq6TKuCzOSCz-328" value="belongs_to" style="rhombus;whiteSpace=wrap;html=1;" vertex="1" parent="1">
          <mxGeometry x="-917.5" y="527.5" width="80" height="80" as="geometry" />
        </mxCell>
        <mxCell id="kMKTAfwcoq6TKuCzOSCz-329" value="" style="endArrow=none;html=1;rounded=0;exitX=0.983;exitY=0.144;exitDx=0;exitDy=0;exitPerimeter=0;" edge="1" parent="1" source="kMKTAfwcoq6TKuCzOSCz-128" target="kMKTAfwcoq6TKuCzOSCz-328">
          <mxGeometry width="50" height="50" relative="1" as="geometry">
            <mxPoint x="-840" y="590" as="sourcePoint" />
            <mxPoint x="-790" y="540" as="targetPoint" />
          </mxGeometry>
        </mxCell>
        <mxCell id="kMKTAfwcoq6TKuCzOSCz-330" value="" style="endArrow=none;html=1;rounded=0;entryX=0.092;entryY=0.637;entryDx=0;entryDy=0;entryPerimeter=0;" edge="1" parent="1" source="kMKTAfwcoq6TKuCzOSCz-328" target="kMKTAfwcoq6TKuCzOSCz-123">
          <mxGeometry width="50" height="50" relative="1" as="geometry">
            <mxPoint x="-840" y="590" as="sourcePoint" />
            <mxPoint x="-790" y="450" as="targetPoint" />
          </mxGeometry>
        </mxCell>
        <mxCell id="kMKTAfwcoq6TKuCzOSCz-331" value="" style="endArrow=none;html=1;rounded=0;entryX=0;entryY=0.25;entryDx=0;entryDy=0;exitX=1;exitY=0.5;exitDx=0;exitDy=0;" edge="1" parent="1" source="kMKTAfwcoq6TKuCzOSCz-332" target="kMKTAfwcoq6TKuCzOSCz-123">
          <mxGeometry width="50" height="50" relative="1" as="geometry">
            <mxPoint x="-1100" y="170" as="sourcePoint" />
            <mxPoint x="-790" y="140" as="targetPoint" />
          </mxGeometry>
        </mxCell>
        <mxCell id="kMKTAfwcoq6TKuCzOSCz-332" value="studies" style="rhombus;whiteSpace=wrap;html=1;" vertex="1" parent="1">
          <mxGeometry x="-1190" y="130" width="80" height="80" as="geometry" />
        </mxCell>
        <mxCell id="kMKTAfwcoq6TKuCzOSCz-333" value="" style="endArrow=none;html=1;rounded=0;" edge="1" parent="1" source="kMKTAfwcoq6TKuCzOSCz-126" target="kMKTAfwcoq6TKuCzOSCz-332">
          <mxGeometry width="50" height="50" relative="1" as="geometry">
            <mxPoint x="-840" y="340" as="sourcePoint" />
            <mxPoint x="-790" y="290" as="targetPoint" />
          </mxGeometry>
        </mxCell>
        <mxCell id="kMKTAfwcoq6TKuCzOSCz-334" value="commented_on" style="rhombus;whiteSpace=wrap;html=1;" vertex="1" parent="1">
          <mxGeometry x="-534.5" y="1780" width="94.5" height="86" as="geometry" />
        </mxCell>
        <mxCell id="kMKTAfwcoq6TKuCzOSCz-335" value="" style="endArrow=none;html=1;rounded=0;exitX=0.606;exitY=0.967;exitDx=0;exitDy=0;exitPerimeter=0;entryX=0.5;entryY=0;entryDx=0;entryDy=0;" edge="1" parent="1" source="kMKTAfwcoq6TKuCzOSCz-334" target="kMKTAfwcoq6TKuCzOSCz-291">
          <mxGeometry width="50" height="50" relative="1" as="geometry">
            <mxPoint x="-340" y="1810" as="sourcePoint" />
            <mxPoint x="-290" y="1760" as="targetPoint" />
          </mxGeometry>
        </mxCell>
        <mxCell id="kMKTAfwcoq6TKuCzOSCz-336" value="" style="endArrow=none;html=1;rounded=0;entryX=0.604;entryY=0.942;entryDx=0;entryDy=0;entryPerimeter=0;exitX=0.5;exitY=0;exitDx=0;exitDy=0;" edge="1" parent="1" source="kMKTAfwcoq6TKuCzOSCz-334" target="kMKTAfwcoq6TKuCzOSCz-272">
          <mxGeometry width="50" height="50" relative="1" as="geometry">
            <mxPoint x="-340" y="1810" as="sourcePoint" />
            <mxPoint x="-290" y="1760" as="targetPoint" />
          </mxGeometry>
        </mxCell>
        <mxCell id="kMKTAfwcoq6TKuCzOSCz-337" value="" style="endArrow=none;html=1;rounded=0;entryX=0;entryY=0.5;entryDx=0;entryDy=0;exitX=0.5;exitY=1;exitDx=0;exitDy=0;" edge="1" parent="1" source="kMKTAfwcoq6TKuCzOSCz-338" target="kMKTAfwcoq6TKuCzOSCz-291">
          <mxGeometry width="50" height="50" relative="1" as="geometry">
            <mxPoint x="-1157.3333740234375" y="1920" as="sourcePoint" />
            <mxPoint x="-290" y="1890" as="targetPoint" />
            <Array as="points">
              <mxPoint x="-1180" y="1890" />
            </Array>
          </mxGeometry>
        </mxCell>
        <mxCell id="kMKTAfwcoq6TKuCzOSCz-338" value="commented_by" style="rhombus;whiteSpace=wrap;html=1;" vertex="1" parent="1">
          <mxGeometry x="-1620" y="1740" width="100" height="80" as="geometry" />
        </mxCell>
        <mxCell id="kMKTAfwcoq6TKuCzOSCz-339" value="" style="endArrow=none;html=1;rounded=0;exitX=0;exitY=0;exitDx=0;exitDy=0;entryX=0.075;entryY=0.074;entryDx=0;entryDy=0;entryPerimeter=0;" edge="1" parent="1" source="kMKTAfwcoq6TKuCzOSCz-338" target="kMKTAfwcoq6TKuCzOSCz-123">
          <mxGeometry width="50" height="50" relative="1" as="geometry">
            <mxPoint x="-1720" y="1752.5" as="sourcePoint" />
            <mxPoint x="-1420" y="32.5" as="targetPoint" />
            <Array as="points">
              <mxPoint x="-1660" y="60" />
            </Array>
          </mxGeometry>
        </mxCell>
        <mxCell id="kMKTAfwcoq6TKuCzOSCz-340" value="" style="endArrow=none;html=1;rounded=0;entryX=0;entryY=0.5;entryDx=0;entryDy=0;exitX=1;exitY=0;exitDx=0;exitDy=0;" edge="1" parent="1" source="kMKTAfwcoq6TKuCzOSCz-341" target="kMKTAfwcoq6TKuCzOSCz-154">
          <mxGeometry width="50" height="50" relative="1" as="geometry">
            <mxPoint x="-280" y="540" as="sourcePoint" />
            <mxPoint x="400" y="410" as="targetPoint" />
          </mxGeometry>
        </mxCell>
        <mxCell id="kMKTAfwcoq6TKuCzOSCz-341" value="taught by" style="rhombus;whiteSpace=wrap;html=1;" vertex="1" parent="1">
          <mxGeometry x="-370" y="505" width="80" height="80" as="geometry" />
        </mxCell>
        <mxCell id="kMKTAfwcoq6TKuCzOSCz-342" value="" style="endArrow=none;html=1;rounded=0;exitX=1;exitY=0.5;exitDx=0;exitDy=0;entryX=0;entryY=0.5;entryDx=0;entryDy=0;" edge="1" parent="1" source="kMKTAfwcoq6TKuCzOSCz-128" target="kMKTAfwcoq6TKuCzOSCz-341">
          <mxGeometry width="50" height="50" relative="1" as="geometry">
            <mxPoint x="350" y="460" as="sourcePoint" />
            <mxPoint x="400" y="410" as="targetPoint" />
          </mxGeometry>
        </mxCell>
        <mxCell id="kMKTAfwcoq6TKuCzOSCz-343" value="has" style="rhombus;whiteSpace=wrap;html=1;" vertex="1" parent="1">
          <mxGeometry x="260" y="630" width="80" height="80" as="geometry" />
        </mxCell>
        <mxCell id="kMKTAfwcoq6TKuCzOSCz-344" value="" style="endArrow=none;html=1;rounded=0;entryX=0;entryY=0.25;entryDx=0;entryDy=0;exitX=1;exitY=0.5;exitDx=0;exitDy=0;" edge="1" parent="1" source="kMKTAfwcoq6TKuCzOSCz-343" target="kMKTAfwcoq6TKuCzOSCz-183">
          <mxGeometry width="50" height="50" relative="1" as="geometry">
            <mxPoint x="350" y="460" as="sourcePoint" />
            <mxPoint x="400" y="410" as="targetPoint" />
          </mxGeometry>
        </mxCell>
        <mxCell id="kMKTAfwcoq6TKuCzOSCz-345" value="" style="endArrow=none;html=1;rounded=0;exitX=0.75;exitY=0;exitDx=0;exitDy=0;entryX=0;entryY=0;entryDx=0;entryDy=0;" edge="1" parent="1" source="kMKTAfwcoq6TKuCzOSCz-129" target="kMKTAfwcoq6TKuCzOSCz-343">
          <mxGeometry width="50" height="50" relative="1" as="geometry">
            <mxPoint x="350" y="460" as="sourcePoint" />
            <mxPoint x="100" y="660" as="targetPoint" />
          </mxGeometry>
        </mxCell>
        <mxCell id="kMKTAfwcoq6TKuCzOSCz-346" value="performed" style="rhombus;whiteSpace=wrap;html=1;" vertex="1" parent="1">
          <mxGeometry x="1525" y="-50" width="80" height="80" as="geometry" />
        </mxCell>
        <mxCell id="kMKTAfwcoq6TKuCzOSCz-347" value="" style="endArrow=none;html=1;rounded=0;entryX=0.5;entryY=1;entryDx=0;entryDy=0;exitX=0.75;exitY=0;exitDx=0;exitDy=0;" edge="1" parent="1" source="kMKTAfwcoq6TKuCzOSCz-263" target="kMKTAfwcoq6TKuCzOSCz-346">
          <mxGeometry width="50" height="50" relative="1" as="geometry">
            <mxPoint x="350" y="460" as="sourcePoint" />
            <mxPoint x="400" y="410" as="targetPoint" />
          </mxGeometry>
        </mxCell>
        <mxCell id="kMKTAfwcoq6TKuCzOSCz-348" value="" style="endArrow=none;html=1;rounded=0;exitX=1;exitY=0;exitDx=0;exitDy=0;" edge="1" parent="1" source="kMKTAfwcoq6TKuCzOSCz-123" target="kMKTAfwcoq6TKuCzOSCz-346">
          <mxGeometry width="50" height="50" relative="1" as="geometry">
            <mxPoint x="-91" y="25" as="sourcePoint" />
            <mxPoint x="1535" y="-20" as="targetPoint" />
            <Array as="points">
              <mxPoint x="-70" y="-110" />
            </Array>
          </mxGeometry>
        </mxCell>
        <mxCell id="kMKTAfwcoq6TKuCzOSCz-350" value="has" style="rhombus;whiteSpace=wrap;html=1;" vertex="1" parent="1">
          <mxGeometry x="290" y="980" width="80" height="80" as="geometry" />
        </mxCell>
        <mxCell id="kMKTAfwcoq6TKuCzOSCz-351" value="" style="endArrow=none;html=1;rounded=0;entryX=0;entryY=0.5;entryDx=0;entryDy=0;exitX=1;exitY=0.5;exitDx=0;exitDy=0;" edge="1" parent="1" source="kMKTAfwcoq6TKuCzOSCz-350" target="kMKTAfwcoq6TKuCzOSCz-169">
          <mxGeometry width="50" height="50" relative="1" as="geometry">
            <mxPoint x="300" y="1050" as="sourcePoint" />
            <mxPoint x="350" y="1000" as="targetPoint" />
          </mxGeometry>
        </mxCell>
        <mxCell id="kMKTAfwcoq6TKuCzOSCz-352" value="" style="endArrow=none;html=1;rounded=0;entryX=0;entryY=0.5;entryDx=0;entryDy=0;" edge="1" parent="1" source="kMKTAfwcoq6TKuCzOSCz-129" target="kMKTAfwcoq6TKuCzOSCz-350">
          <mxGeometry width="50" height="50" relative="1" as="geometry">
            <mxPoint x="300" y="1050" as="sourcePoint" />
            <mxPoint x="350" y="1000" as="targetPoint" />
          </mxGeometry>
        </mxCell>
        <mxCell id="kMKTAfwcoq6TKuCzOSCz-353" value="owns" style="rhombus;whiteSpace=wrap;html=1;" vertex="1" parent="1">
          <mxGeometry x="1150" y="160" width="80" height="80" as="geometry" />
        </mxCell>
        <mxCell id="kMKTAfwcoq6TKuCzOSCz-354" value="" style="endArrow=none;html=1;rounded=0;entryX=0.5;entryY=1;entryDx=0;entryDy=0;exitX=0.5;exitY=0;exitDx=0;exitDy=0;" edge="1" parent="1" source="kMKTAfwcoq6TKuCzOSCz-256" target="kMKTAfwcoq6TKuCzOSCz-353">
          <mxGeometry width="50" height="50" relative="1" as="geometry">
            <mxPoint x="300" y="430" as="sourcePoint" />
            <mxPoint x="350" y="380" as="targetPoint" />
          </mxGeometry>
        </mxCell>
        <mxCell id="kMKTAfwcoq6TKuCzOSCz-355" value="" style="endArrow=none;html=1;rounded=0;entryX=0;entryY=0.5;entryDx=0;entryDy=0;exitX=1;exitY=0.5;exitDx=0;exitDy=0;" edge="1" parent="1" source="kMKTAfwcoq6TKuCzOSCz-123" target="kMKTAfwcoq6TKuCzOSCz-353">
          <mxGeometry width="50" height="50" relative="1" as="geometry">
            <mxPoint x="-180" y="70" as="sourcePoint" />
            <mxPoint x="350" y="510" as="targetPoint" />
          </mxGeometry>
        </mxCell>
        <mxCell id="kMKTAfwcoq6TKuCzOSCz-356" value="traded_on" style="rhombus;whiteSpace=wrap;html=1;" vertex="1" parent="1">
          <mxGeometry x="50" y="1488" width="80" height="80" as="geometry" />
        </mxCell>
        <mxCell id="kMKTAfwcoq6TKuCzOSCz-357" value="" style="endArrow=none;html=1;rounded=0;exitX=1;exitY=0.5;exitDx=0;exitDy=0;entryX=0;entryY=0.75;entryDx=0;entryDy=0;" edge="1" parent="1" source="kMKTAfwcoq6TKuCzOSCz-356" target="kMKTAfwcoq6TKuCzOSCz-196">
          <mxGeometry width="50" height="50" relative="1" as="geometry">
            <mxPoint x="300" y="1370" as="sourcePoint" />
            <mxPoint x="350" y="1320" as="targetPoint" />
          </mxGeometry>
        </mxCell>
        <mxCell id="kMKTAfwcoq6TKuCzOSCz-358" value="" style="endArrow=none;html=1;rounded=0;entryX=0.75;entryY=1;entryDx=0;entryDy=0;exitX=0;exitY=0.5;exitDx=0;exitDy=0;" edge="1" parent="1" source="kMKTAfwcoq6TKuCzOSCz-356" target="kMKTAfwcoq6TKuCzOSCz-129">
          <mxGeometry width="50" height="50" relative="1" as="geometry">
            <mxPoint x="300" y="1370" as="sourcePoint" />
            <mxPoint x="350" y="1320" as="targetPoint" />
          </mxGeometry>
        </mxCell>
        <mxCell id="kMKTAfwcoq6TKuCzOSCz-359" value="made_by" style="rhombus;whiteSpace=wrap;html=1;" vertex="1" parent="1">
          <mxGeometry x="180" y="1310" width="80" height="80" as="geometry" />
        </mxCell>
        <mxCell id="kMKTAfwcoq6TKuCzOSCz-360" value="" style="endArrow=none;html=1;rounded=0;entryX=0;entryY=0.25;entryDx=0;entryDy=0;exitX=0.5;exitY=1;exitDx=0;exitDy=0;" edge="1" parent="1" source="kMKTAfwcoq6TKuCzOSCz-359" target="kMKTAfwcoq6TKuCzOSCz-196">
          <mxGeometry width="50" height="50" relative="1" as="geometry">
            <mxPoint x="30" y="1450" as="sourcePoint" />
            <mxPoint x="80" y="1400" as="targetPoint" />
          </mxGeometry>
        </mxCell>
        <mxCell id="kMKTAfwcoq6TKuCzOSCz-361" value="" style="endArrow=none;html=1;rounded=0;entryX=0.5;entryY=0;entryDx=0;entryDy=0;exitX=1;exitY=0.5;exitDx=0;exitDy=0;" edge="1" parent="1" source="kMKTAfwcoq6TKuCzOSCz-123" target="kMKTAfwcoq6TKuCzOSCz-359">
          <mxGeometry width="50" height="50" relative="1" as="geometry">
            <mxPoint x="30" y="1450" as="sourcePoint" />
            <mxPoint x="80" y="1400" as="targetPoint" />
          </mxGeometry>
        </mxCell>
        <mxCell id="kMKTAfwcoq6TKuCzOSCz-362" value="" style="endArrow=none;html=1;rounded=0;exitX=1;exitY=0.25;exitDx=0;exitDy=0;" edge="1" parent="1" source="kMKTAfwcoq6TKuCzOSCz-227" target="kMKTAfwcoq6TKuCzOSCz-363">
          <mxGeometry width="50" height="50" relative="1" as="geometry">
            <mxPoint x="1380" y="1866" as="sourcePoint" />
            <mxPoint x="2330" y="-60" as="targetPoint" />
          </mxGeometry>
        </mxCell>
        <mxCell id="kMKTAfwcoq6TKuCzOSCz-363" value="taken_by" style="rhombus;whiteSpace=wrap;html=1;" vertex="1" parent="1">
          <mxGeometry x="2210" y="-165" width="80" height="80" as="geometry" />
        </mxCell>
        <mxCell id="kMKTAfwcoq6TKuCzOSCz-364" value="" style="endArrow=none;html=1;rounded=0;exitX=0;exitY=0;exitDx=0;exitDy=0;entryX=0.25;entryY=0;entryDx=0;entryDy=0;" edge="1" parent="1" source="kMKTAfwcoq6TKuCzOSCz-363" target="kMKTAfwcoq6TKuCzOSCz-123">
          <mxGeometry width="50" height="50" relative="1" as="geometry">
            <mxPoint x="1350" y="-235" as="sourcePoint" />
            <mxPoint x="-790" y="-580" as="targetPoint" />
            <Array as="points">
              <mxPoint x="290" y="-280" />
              <mxPoint x="-790" y="-730" />
            </Array>
          </mxGeometry>
        </mxCell>
      </root>
    </mxGraphModel>
  </diagram>
</mxfile>
